<?xml version="1.0" encoding="UTF-8"?>
<svg width="500px" height="304px" viewBox="0 0 500 304" version="1.1" xmlns="http://www.w3.org/2000/svg" xmlns:xlink="http://www.w3.org/1999/xlink">
    <!-- Generator: Sketch 63.1 (92452) - https://sketch.com -->
    <title>Izquierda Copy</title>
    <desc>Created with Sketch.</desc>
    <g id="Stories-maquetados" stroke="none" stroke-width="1" fill="none" fill-rule="evenodd">
        <g id="Izquierda-Copy">
            <g id="Forma1-Copy-3" transform="translate(0.000000, 9.285714)" fill="#113255" fill-opacity="0.332085883">
                <path d="M496.964905,64.5635405 C502.951921,48.8658043 497.735164,29.4992678 484.38567,19.1773318 C475.264266,12.1228431 463.550322,8.95531773 452.018106,8.71717045 C432.911674,8.3224788 414.497141,15.3553177 396.486077,20.8243784 C378.063208,26.4200068 359.503626,31.6858928 340.625604,35.5412142 C308.486451,42.10442 276.497348,41.3933089 244.499908,34.4637226 C187.705788,22.1649977 131.593563,-8.36448451 71.9668222,2.17561437 C70.1745522,2.49203383 68.3856166,2.84176061 66.6083515,3.23312153 C66.0081495,3.36468541 65.4079474,3.49958002 64.8110798,3.63947073 C34.6909394,10.6473292 5.66783491,32.8150107 1.04794621,65.2480057 C-2.51325273,90.2418127 12.4317788,112.552716 32.9570223,125.21116 C80.5230362,154.544909 134.16943,177.262161 190.288324,181.92352 C239.058076,185.973689 287.669442,175.938196 333.169761,158.758284 C370.627371,144.612669 406.631159,126.463514 442.254819,108.284384 C462.36659,98.01907 487.308321,87.9319506 496.593113,65.4978106 C496.72149,65.1880526 496.846532,64.8749638 496.964905,64.5635405" id="Fill-1"></path>
            </g>
            <g id="estrellas-copy-4" transform="translate(99.285714, 0.000000)">
                <path d="M265.461473,186.365751 C264.371953,186.735605 264.834726,188.557545 265.938822,188.464626 C266.166564,188.444585 266.387019,188.337091 266.558281,188.180404 L266.67853,188.109348 C267.560349,187.411545 266.279525,186.088816 265.461473,186.365751" id="Fill-33" fill="#FFFFFF"></path>
                <path d="M319.545271,209.57893 C318.45575,209.948784 318.918523,211.770724 320.022619,211.677805 C320.250362,211.657764 320.470817,211.55027 320.642079,211.393583 L320.762327,211.322527 C321.644146,210.624724 320.363322,209.301995 319.545271,209.57893" id="Fill-33-Copy" fill="#FFFFFF"></path>
                <path d="M55.2595565,145.293216 C54.1700361,145.66307 54.632809,147.48501 55.7369049,147.392091 C55.9646475,147.37205 56.1851023,147.264555 56.3563647,147.107868 L56.4766128,147.036813 C57.358432,146.339009 56.0776078,145.016281 55.2595565,145.293216" id="Fill-33-Copy" fill="#FFFFFF"></path>
                <path d="M5.2595565,116.721787 C4.17003606,117.091641 4.63280895,118.913581 5.73690492,118.820663 C5.96464749,118.800621 6.18510229,118.693127 6.3563647,118.53644 L6.47661278,118.465384 C7.358432,117.767581 6.0776078,116.444852 5.2595565,116.721787" id="Fill-33-Copy" fill="#FFFFFF"></path>
                <path d="M119.545271,73.8646442 C118.45575,74.2344981 118.918523,76.0564386 120.022619,75.9635197 C120.250362,75.9434783 120.470817,75.8359838 120.642079,75.6792969 L120.762327,75.6082412 C121.644146,74.910438 120.363322,73.5877092 119.545271,73.8646442" id="Fill-33-Copy" fill="#FFFFFF"></path>
                <path d="M133.830985,52.4360727 C132.741465,52.8059267 133.204238,54.6278672 134.308333,54.5349482 C134.536076,54.5149069 134.756531,54.4074124 134.927793,54.2507255 L135.048041,54.1796698 C135.929861,53.4818666 134.649036,52.1591378 133.830985,52.4360727" id="Fill-33-Copy" fill="#FFFFFF"></path>
                <path d="M355.127769,158.181987 C354.038249,158.551841 354.501022,160.373782 355.605118,160.280863 C355.83286,160.260821 356.053315,160.153327 356.224578,159.99664 L356.344826,159.925584 C357.226645,159.227781 355.945821,157.905052 355.127769,158.181987" id="Fill-33-Copy" fill="#FFFFFF"></path>
                <path d="M337.995455,295.240501 C336.905935,295.610355 337.368708,297.432295 338.472804,297.339376 C338.700546,297.319335 338.921001,297.21184 339.092263,297.055154 L339.212512,296.984098 C340.094331,296.286295 338.813507,294.963566 337.995455,295.240501" id="Fill-33-Copy" fill="#FFFFFF"></path>
                <path d="M240.473051,300.511982 C239.383531,300.881836 239.846304,302.703777 240.9504,302.610858 C241.178142,302.590816 241.398597,302.483322 241.56986,302.326635 L241.690108,302.255579 C242.571927,301.557776 241.291103,300.235047 240.473051,300.511982" id="Fill-33-Copy" fill="#FFFFFF"></path>
                <path d="M240.473051,300.511982 C239.383531,300.881836 239.846304,302.703777 240.9504,302.610858 C241.178142,302.590816 241.398597,302.483322 241.56986,302.326635 L241.690108,302.255579 C242.571927,301.557776 241.291103,300.235047 240.473051,300.511982" id="Fill-33-Copy" fill="#FFFFFF"></path>
                <path d="M242.808193,75.9093305 C241.718673,76.2791845 242.181446,78.101125 243.285542,78.008206 C243.513284,77.9881647 243.733739,77.8806702 243.905002,77.7239833 L244.02525,77.6529276 C244.907069,76.9551244 243.626245,75.6323956 242.808193,75.9093305" id="Fill-41" fill="#FFFFFF"></path>
                <path d="M312.041934,84.7129472 C310.952413,85.0828011 311.415186,86.9047417 312.519282,86.8118227 C312.747025,86.7917813 312.96748,86.6842869 313.138742,86.5276 L313.25899,86.4565443 C314.140809,85.7587411 312.859985,84.4360122 312.041934,84.7129472" id="Fill-43" fill="#FFFFFF"></path>
                <path d="M162.64281,181.274885 C161.553289,181.644739 162.016062,183.466679 163.120158,183.375582 C163.347901,183.355541 163.568356,183.246224 163.739618,183.091359 L163.859866,183.020304 C164.741685,182.320679 163.460861,180.99795 162.64281,181.274885" id="Fill-45" fill="#FFFFFF"></path>
                <path d="M149.889226,106.576234 C148.799706,106.946088 149.262478,108.768028 150.366574,108.675109 C150.594317,108.655068 150.814772,108.547573 150.986034,108.390886 L151.106282,108.319831 C151.988102,107.622028 150.707277,106.299299 149.889226,106.576234" id="Fill-49" fill="#FFFFFF"></path>
                <path d="M0.620652967,1.35541906 C-0.468867474,1.72527299 -0.0060945779,3.54721353 1.09800139,3.45429456 C1.32574395,3.43425321 1.54619876,3.32675872 1.71746117,3.17007184 L1.83770925,3.09901616 C2.71952847,2.40121293 1.43870427,1.0784841 0.620652967,1.35541906" id="Fill-49-Copy-3" fill="#FFFFFF"></path>
                <path d="M214.064166,147.210973 C213.65423,147.125342 213.229718,147.098013 212.812493,147.092547 C212.66856,147.090725 212.522805,147.087081 212.378871,147.083438 C212.373405,146.719049 212.357008,146.354661 212.331501,145.992095 C212.28413,145.389033 212.203965,144.37239 211.497052,144.168333 C211.39138,144.13736 211.079828,145.276073 211.056142,145.390855 C210.968689,145.79897 210.943182,146.223482 210.935894,146.642528 C210.934072,146.786461 210.930429,146.930395 210.926785,147.07615 C210.582438,147.083438 210.236269,147.098013 209.893744,147.139918 C209.294326,147.210973 208.219381,147.238303 208.01168,147.954325 C207.980707,148.058176 209.117598,148.369728 209.234202,148.393413 C209.778962,148.510017 210.356517,148.517305 210.919497,148.526414 C210.926785,148.872583 210.943182,149.21693 210.985087,149.561277 C211.056142,150.158873 211.08165,151.233818 211.797672,151.441519 C211.901523,151.472492 212.213075,150.335601 212.238582,150.220819 C212.355186,149.674237 212.360652,149.098504 212.369762,148.535524 C212.735972,148.530058 213.098538,148.513661 213.462926,148.486332 C214.064166,148.440783 215.080809,148.358796 215.286688,147.651883 C215.315839,147.548032 214.177127,147.234659 214.064166,147.210973" id="Fill-57" fill="#D5D5FD"></path>
                <path d="M214.064166,147.210973 C213.65423,147.125342 213.229718,147.098013 212.812493,147.092547 C212.66856,147.090725 212.522805,147.087081 212.378871,147.083438 C212.373405,146.719049 212.357008,146.354661 212.331501,145.992095 C212.28413,145.389033 212.203965,144.37239 211.497052,144.168333 C211.39138,144.13736 211.079828,145.276073 211.056142,145.390855 C210.968689,145.79897 210.943182,146.223482 210.935894,146.642528 C210.934072,146.786461 210.930429,146.930395 210.926785,147.07615 C210.582438,147.083438 210.236269,147.098013 209.893744,147.139918 C209.294326,147.210973 208.219381,147.238303 208.01168,147.954325 C207.980707,148.058176 209.117598,148.369728 209.234202,148.393413 C209.778962,148.510017 210.356517,148.517305 210.919497,148.526414 C210.926785,148.872583 210.943182,149.21693 210.985087,149.561277 C211.056142,150.158873 211.08165,151.233818 211.797672,151.441519 C211.901523,151.472492 212.213075,150.335601 212.238582,150.220819 C212.355186,149.674237 212.360652,149.098504 212.369762,148.535524 C212.735972,148.530058 213.098538,148.513661 213.462926,148.486332 C214.064166,148.440783 215.080809,148.358796 215.286688,147.651883 C215.315839,147.548032 214.177127,147.234659 214.064166,147.210973" id="Fill-57" fill="#D5D5FD"></path>
                <path d="M224.553836,110.499415 C223.208919,110.954978 223.780171,113.19913 225.14308,113.084679 C225.424208,113.059993 225.69634,112.927588 225.907748,112.734591 L226.056184,112.647069 C227.144712,111.787558 225.563648,110.158303 224.553836,110.499415" id="Fill-49-Copy" fill="#FFFFFF"></path>
                <path d="M328.915851,29.0393973 C327.570935,29.4949603 328.142187,31.7391129 329.505096,31.6246612 C329.786224,31.5999755 330.058356,31.4675705 330.269764,31.2745733 L330.4182,31.1870514 C331.506727,30.3275409 329.925663,28.6982861 328.915851,29.0393973" id="Fill-49-Copy-2" fill="#FFFFFF"></path>
                <path d="M171.752512,92.0007093 C170.662992,92.3705633 171.125765,94.1925038 172.229861,94.0995848 C172.457603,94.0795435 172.678058,93.972049 172.849321,93.8153621 L172.969569,93.7443064 C173.851388,93.0465032 172.570564,91.7237744 171.752512,92.0007093" id="Fill-51" fill="#FFFFFF"></path>
                <path d="M214.064166,147.210973 C213.65423,147.125342 213.229718,147.098013 212.812493,147.092547 C212.66856,147.090725 212.522805,147.087081 212.378871,147.083438 C212.373405,146.719049 212.357008,146.354661 212.331501,145.992095 C212.28413,145.389033 212.203965,144.37239 211.497052,144.168333 C211.39138,144.13736 211.079828,145.276073 211.056142,145.390855 C210.968689,145.79897 210.943182,146.223482 210.935894,146.642528 C210.934072,146.786461 210.930429,146.930395 210.926785,147.07615 C210.582438,147.083438 210.236269,147.098013 209.893744,147.139918 C209.294326,147.210973 208.219381,147.238303 208.01168,147.954325 C207.980707,148.058176 209.117598,148.369728 209.234202,148.393413 C209.778962,148.510017 210.356517,148.517305 210.919497,148.526414 C210.926785,148.872583 210.943182,149.21693 210.985087,149.561277 C211.056142,150.158873 211.08165,151.233818 211.797672,151.441519 C211.901523,151.472492 212.213075,150.335601 212.238582,150.220819 C212.355186,149.674237 212.360652,149.098504 212.369762,148.535524 C212.735972,148.530058 213.098538,148.513661 213.462926,148.486332 C214.064166,148.440783 215.080809,148.358796 215.286688,147.651883 C215.315839,147.548032 214.177127,147.234659 214.064166,147.210973" id="Fill-57" fill="#D5D5FD"></path>
                <path d="M266.991431,111.108627 C266.581495,111.022996 266.156983,110.995667 265.739758,110.990201 C265.595825,110.988379 265.45007,110.984735 265.306136,110.981092 C265.300671,110.616703 265.284273,110.252315 265.258766,109.889749 C265.211396,109.286687 265.13123,108.270044 264.424317,108.065987 C264.318645,108.035014 264.007093,109.173727 263.983408,109.288509 C263.895954,109.696623 263.870447,110.121136 263.86316,110.540182 C263.861338,110.684115 263.857694,110.828049 263.85405,110.973804 C263.509703,110.981092 263.163534,110.995667 262.82101,111.037572 C262.221591,111.108627 261.146646,111.135956 260.938945,111.851979 C260.907972,111.95583 262.044863,112.267382 262.161467,112.291067 C262.706227,112.407671 263.283782,112.414959 263.846762,112.424068 C263.85405,112.770237 263.870447,113.114584 263.912352,113.458931 C263.983408,114.056527 264.008915,115.131472 264.724937,115.339173 C264.828788,115.370146 265.14034,114.233255 265.165847,114.118473 C265.282451,113.571891 265.287917,112.996158 265.297027,112.433178 C265.663237,112.427712 266.025803,112.411315 266.390191,112.383986 C266.991431,112.338437 268.008074,112.25645 268.213954,111.549537 C268.243105,111.445686 267.104392,111.132313 266.991431,111.108627" id="Fill-57" fill="#D5D5FD"></path>
                <path d="M89.078938,22.8113158 C88.6690014,22.7256846 88.2444892,22.6983555 87.8272648,22.6928897 C87.6833315,22.6910678 87.5375763,22.6874239 87.393643,22.68378 C87.3881772,22.3193919 87.3717797,21.9550038 87.3462725,21.5924376 C87.2989021,20.9893753 87.2187367,19.9727325 86.5118238,19.7686751 C86.4061512,19.7377021 86.0945994,20.876415 86.0709142,20.9911972 C85.983461,21.3993119 85.9579539,21.8238241 85.9506661,22.2428704 C85.9488442,22.3868037 85.9452003,22.530737 85.9415564,22.6764922 C85.5972096,22.68378 85.2510409,22.6983555 84.9085161,22.7402601 C84.3090977,22.8113158 83.2341528,22.8386449 83.0264515,23.5546676 C82.9954785,23.6585182 84.1323694,23.97007 84.2489736,23.9937552 C84.7937339,24.1103594 85.371289,24.1176472 85.9342686,24.1267569 C85.9415564,24.4729256 85.9579539,24.8172724 85.9998585,25.1616191 C86.0709142,25.7592156 86.0964213,26.8341605 86.812444,27.0418618 C86.9162946,27.0728347 87.2278464,25.9359438 87.2533536,25.8211616 C87.3699578,25.2745794 87.3754236,24.6988462 87.3845333,24.1358666 C87.7507433,24.1304008 88.1133095,24.1140033 88.4776976,24.0866742 C89.078938,24.0411257 90.0955808,23.9591384 90.3014601,23.2522254 C90.3306111,23.1483748 89.1918983,22.8350011 89.078938,22.8113158" id="Fill-57-Copy-3" fill="#D5D5FD"></path>
                <path d="M52.178569,299.564083 C51.7686324,299.478452 51.3441202,299.451123 50.9268958,299.445657 C50.7829625,299.443835 50.6372073,299.440191 50.493274,299.436548 C50.4878082,299.072159 50.4714107,298.707771 50.4459035,298.345205 C50.3985331,297.742143 50.3183677,296.7255 49.6114548,296.521443 C49.5057822,296.49047 49.1942304,297.629183 49.1705452,297.743965 C49.083092,298.152079 49.0575849,298.576592 49.0502971,298.995638 C49.0484752,299.139571 49.0448313,299.283505 49.0411874,299.42926 C48.6968406,299.436548 48.3506719,299.451123 48.0081471,299.493028 C47.4087287,299.564083 46.3337838,299.591412 46.1260825,300.307435 C46.0951095,300.411286 47.2320004,300.722838 47.3486046,300.746523 C47.8933649,300.863127 48.47092,300.870415 49.0338996,300.879524 C49.0411874,301.225693 49.0575849,301.57004 49.0994895,301.914387 C49.1705452,302.511983 49.1960523,303.586928 49.912075,303.794629 C50.0159256,303.825602 50.3274774,302.688711 50.3529846,302.573929 C50.4695888,302.027347 50.4750546,301.451614 50.4841643,300.888634 C50.8503743,300.883168 51.2129405,300.866771 51.5773286,300.839442 C52.178569,300.793893 53.1952118,300.711906 53.4010911,300.004993 C53.4302421,299.901142 52.2915293,299.587769 52.178569,299.564083" id="Fill-57-Copy-4" fill="#D5D5FD"></path>
                <path d="M330.249207,234.988438 C329.83927,234.902806 329.414758,234.875477 328.997534,234.870011 C328.8536,234.86819 328.707845,234.864546 328.563912,234.860902 C328.558446,234.496514 328.542049,234.132126 328.516541,233.769559 C328.469171,233.166497 328.389006,232.149854 327.682093,231.945797 C327.57642,231.914824 327.264868,233.053537 327.241183,233.168319 C327.15373,233.576434 327.128223,234.000946 327.120935,234.419992 C327.119113,234.563925 327.115469,234.707859 327.111825,234.853614 C326.767478,234.860902 326.42131,234.875477 326.078785,234.917382 C325.479367,234.988438 324.404422,235.015767 324.19672,235.731789 C324.165747,235.83564 325.302638,236.147192 325.419242,236.170877 C325.964003,236.287481 326.541558,236.294769 327.104537,236.303879 C327.111825,236.650047 327.128223,236.994394 327.170127,237.338741 C327.241183,237.936337 327.26669,239.011282 327.982713,239.218984 C328.086563,239.249957 328.398115,238.113066 328.423622,237.998283 C328.540227,237.451701 328.545692,236.875968 328.554802,236.312988 C328.921012,236.307523 329.283578,236.291125 329.647966,236.263796 C330.249207,236.218247 331.26585,236.13626 331.471729,235.429347 C331.50088,235.325497 330.362167,235.012123 330.249207,234.988438" id="Fill-57-Copy-5" fill="#D5D5FD"></path>
                <path d="M306.527541,145.373256 C306.117604,145.287625 305.693092,145.260295 305.275868,145.25483 C305.131935,145.253008 304.986179,145.249364 304.842246,145.24572 C304.83678,144.881332 304.820383,144.516944 304.794876,144.154378 C304.747505,143.551315 304.66734,142.534672 303.960427,142.330615 C303.854754,142.299642 303.543202,143.438355 303.519517,143.553137 C303.432064,143.961252 303.406557,144.385764 303.399269,144.80481 C303.397447,144.948744 303.393803,145.092677 303.390159,145.238432 C303.045813,145.24572 302.699644,145.260295 302.357119,145.3022 C301.757701,145.373256 300.682756,145.400585 300.475055,146.116607 C300.444082,146.220458 301.580972,146.53201 301.697577,146.555695 C302.242337,146.672299 302.819892,146.679587 303.382872,146.688697 C303.390159,147.034866 303.406557,147.379212 303.448462,147.723559 C303.519517,148.321156 303.545024,149.3961 304.261047,149.603802 C304.364898,149.634775 304.676449,148.497884 304.701957,148.383101 C304.818561,147.836519 304.824027,147.260786 304.833136,146.697807 C305.199346,146.692341 305.561913,146.675943 305.926301,146.648614 C306.527541,146.603066 307.544184,146.521078 307.750063,145.814165 C307.779214,145.710315 306.640501,145.396941 306.527541,145.373256" id="Fill-57-Copy-6" fill="#D5D5FD"></path>
                <path d="M342.11004,83.4333506 C341.700103,83.3477194 341.275591,83.3203903 340.858367,83.3149245 C340.714433,83.3131025 340.568678,83.3094587 340.424745,83.3058148 C340.419279,82.9414267 340.402881,82.5770386 340.377374,82.2144724 C340.330004,81.6114101 340.249838,80.5947673 339.542926,80.3907099 C339.437253,80.3597369 339.125701,81.4984498 339.102016,81.613232 C339.014563,82.0213467 338.989056,82.4458588 338.981768,82.8649052 C338.979946,83.0088385 338.976302,83.1527718 338.972658,83.298527 C338.628311,83.3058148 338.282143,83.3203903 337.939618,83.3622949 C337.340199,83.4333506 336.265254,83.4606797 336.057553,84.1767024 C336.02658,84.280553 337.163471,84.5921048 337.280075,84.61579 C337.824836,84.7323942 338.402391,84.739682 338.96537,84.7487917 C338.972658,85.0949604 338.989056,85.4393071 339.03096,85.7836539 C339.102016,86.3812504 339.127523,87.4561953 339.843546,87.6638965 C339.947396,87.6948695 340.258948,86.5579786 340.284455,86.4431964 C340.40106,85.8966142 340.406525,85.320881 340.415635,84.7579014 C340.781845,84.7524356 341.144411,84.7360381 341.508799,84.708709 C342.11004,84.6631605 343.126683,84.5811732 343.332562,83.8742602 C343.361713,83.7704096 342.223,83.4570358 342.11004,83.4333506" id="Fill-57-Copy-7" fill="#D5D5FD"></path>
                <path d="M334.202818,54.4402035 C333.792881,54.3545723 333.368369,54.3272432 332.951145,54.3217774 C332.807211,54.3199555 332.661456,54.3163116 332.517523,54.3126677 C332.512057,53.9482796 332.49566,53.5838915 332.470152,53.2213253 C332.422782,52.618263 332.342617,51.6016202 331.635704,51.3975628 C331.530031,51.3665899 331.218479,52.5053027 331.194794,52.6200849 C331.107341,53.0281996 331.081834,53.4527118 331.074546,53.8717581 C331.072724,54.0156914 331.06908,54.1596247 331.065436,54.3053799 C330.721089,54.3126677 330.374921,54.3272432 330.032396,54.3691479 C329.432977,54.4402035 328.358033,54.4675327 328.150331,55.1835553 C328.119358,55.2874059 329.256249,55.5989577 329.372853,55.622643 C329.917614,55.7392471 330.495169,55.7465349 331.058148,55.7556446 C331.065436,56.1018133 331.081834,56.4461601 331.123738,56.7905068 C331.194794,57.3881033 331.220301,58.4630482 331.936324,58.6707495 C332.040174,58.7017225 332.351726,57.5648316 332.377233,57.4500493 C332.493838,56.9034671 332.499303,56.3277339 332.508413,55.7647543 C332.874623,55.7592885 333.237189,55.742891 333.601577,55.7155619 C334.202818,55.6700134 335.219461,55.5880261 335.42534,54.8811132 C335.454491,54.7772625 334.315778,54.4638888 334.202818,54.4402035" id="Fill-57-Copy-8" fill="#D5D5FD"></path>
                <path d="M241.951895,3.043261 C241.541959,2.9576298 241.117447,2.93030069 240.700222,2.92483487 C240.556289,2.92301293 240.410534,2.91936905 240.2666,2.91572516 C240.261134,2.55133706 240.244737,2.18694895 240.21923,1.82438278 C240.171859,1.22132047 240.091694,0.204677646 239.384781,0.000620306117 C239.279109,-0.030352683 238.967557,1.10836015 238.943871,1.22314241 C238.856418,1.63125709 238.830911,2.05576923 238.823623,2.47481555 C238.821801,2.61874886 238.818158,2.76268216 238.814514,2.9084374 C238.470167,2.91572516 238.123998,2.93030069 237.781473,2.97220532 C237.182055,3.043261 236.10711,3.07059011 235.899409,3.78661274 C235.868436,3.89046335 237.005327,4.20201518 237.121931,4.22570041 C237.666691,4.34230461 238.244246,4.34959237 238.807226,4.35870207 C238.814514,4.70487077 238.830911,5.04921753 238.872816,5.39356429 C238.943871,5.99116079 238.969379,7.06610571 239.685401,7.27380693 C239.789252,7.30477992 240.100804,6.16788902 240.126311,6.05310677 C240.242915,5.50652461 240.248381,4.9307914 240.257491,4.36781177 C240.623701,4.36234595 240.986267,4.34594849 241.350655,4.31861938 C241.951895,4.27307086 242.968538,4.19108354 243.174417,3.48417061 C243.203568,3.38032 242.064856,3.06694623 241.951895,3.043261" id="Fill-57-Copy-9" fill="#D5D5FD"></path>
                <path d="M278.852264,277.160288 C278.442328,277.074657 278.017816,277.047328 277.600591,277.041862 C277.456658,277.04004 277.310903,277.036396 277.166969,277.032752 C277.161503,276.668364 277.145106,276.303976 277.119599,275.94141 C277.072228,275.338347 276.992063,274.321705 276.28515,274.117647 C276.179478,274.086674 275.867926,275.225387 275.84424,275.340169 C275.756787,275.748284 275.73128,276.172796 275.723992,276.591842 C275.72217,276.735776 275.718527,276.879709 275.714883,277.025464 C275.370536,277.032752 275.024367,277.047328 274.681842,277.089232 C274.082424,277.160288 273.007479,277.187617 272.799778,277.90364 C272.768805,278.00749 273.905696,278.319042 274.0223,278.342727 C274.56706,278.459331 275.144615,278.466619 275.707595,278.475729 C275.714883,278.821898 275.73128,279.166244 275.773185,279.510591 C275.84424,280.108188 275.869748,281.183133 276.58577,281.390834 C276.689621,281.421807 277.001173,280.284916 277.02668,280.170134 C277.143284,279.623551 277.14875,279.047818 277.15786,278.484839 C277.52407,278.479373 277.886636,278.462975 278.251024,278.435646 C278.852264,278.390098 279.868907,278.30811 280.074786,277.601197 C280.103937,277.497347 278.965225,277.183973 278.852264,277.160288" id="Fill-57-Copy" fill="#D5D5FD"></path>
                <path d="M62.2600808,90.9348741 C61.8501442,90.8492429 61.425632,90.8219138 61.0084076,90.816448 C60.8644743,90.8146261 60.7187191,90.8109822 60.5747858,90.8073383 C60.56932,90.4429502 60.5529225,90.0785621 60.5274153,89.7159959 C60.4800449,89.1129336 60.3998795,88.0962908 59.6929666,87.8922334 C59.587294,87.8612604 59.2757422,88.9999733 59.252057,89.1147555 C59.1646038,89.5228702 59.1390967,89.9473824 59.1318089,90.3664287 C59.129987,90.510362 59.1263431,90.6542953 59.1226992,90.8000505 C58.7783524,90.8073383 58.4321837,90.8219138 58.0896589,90.8638184 C57.4902405,90.9348741 56.4152956,90.9622032 56.2075943,91.6782259 C56.1766213,91.7820765 57.3135122,92.0936283 57.4301164,92.1173135 C57.9748767,92.2339177 58.5524318,92.2412055 59.1154114,92.2503152 C59.1226992,92.5964839 59.1390967,92.9408307 59.1810013,93.2851774 C59.252057,93.8827739 59.2775641,94.9577188 59.9935868,95.1654201 C60.0974374,95.196393 60.4089892,94.0595021 60.4344964,93.9447199 C60.5511006,93.3981377 60.5565664,92.8224045 60.5656761,92.2594249 C60.9318861,92.2539591 61.2944523,92.2375616 61.6588404,92.2102325 C62.2600808,92.164684 63.2767236,92.0826967 63.4826029,91.3757837 C63.5117539,91.2719331 62.3730411,90.9585594 62.2600808,90.9348741" id="Fill-59" fill="#D5D5FD"></path>
                <path d="M25.8212701,178.045495 C25.4113334,177.959864 24.9868213,177.932535 24.5695969,177.927069 C24.4256636,177.925247 24.2799084,177.921603 24.1359751,177.917959 C24.1305092,177.553571 24.1141118,177.189183 24.0886046,176.826617 C24.0412342,176.223555 23.9610688,175.206912 23.2541558,175.001032 C23.1484833,174.971881 22.8369315,176.110594 22.8132462,176.225376 C22.7257931,176.635313 22.7002859,177.059825 22.6929982,177.47705 C22.6911762,177.620983 22.6875323,177.766738 22.6838885,177.910671 C22.3395417,177.917959 21.993373,177.932535 21.6508482,177.974439 C21.0514297,178.045495 19.9764848,178.074646 19.7687836,178.787025 C19.7378106,178.892697 20.8747015,179.204249 20.9913057,179.227934 C21.5360659,179.344539 22.1136211,179.351826 22.6766007,179.360936 C22.6838885,179.705283 22.7002859,180.053274 22.7421906,180.395798 C22.8132462,180.993395 22.8387534,182.06834 23.554776,182.276041 C23.6586266,182.307014 23.9701785,181.170123 23.9956856,181.055341 C24.1122898,180.510581 24.1177557,179.933025 24.1268654,179.371868 C24.4930754,179.36458 24.8556416,179.348183 25.2200297,179.320853 C25.8212701,179.275305 26.8379129,179.19514 27.0437922,178.486405 C27.0729432,178.382554 25.9342304,178.071002 25.8212701,178.045495" id="Fill-61" fill="#D5D5FD"></path>
                <path d="M107.972569,192.678593 C107.562632,192.59114 107.13812,192.565632 106.720896,192.560167 C106.57514,192.558345 106.431207,192.554701 106.287274,192.551057 C106.281808,192.184847 106.265411,191.822281 106.239903,191.459714 C106.192533,190.856652 106.112368,189.840009 105.405455,189.63413 C105.299782,189.604979 104.986408,190.743692 104.964545,190.858474 C104.877092,191.268411 104.849763,191.691101 104.844297,192.110147 C104.842475,192.254081 104.838831,192.398014 104.835187,192.543769 C104.49084,192.551057 104.144672,192.565632 103.802147,192.607537 C103.202729,192.678593 102.127784,192.705922 101.920082,193.420122 C101.889109,193.525795 103.026,193.837347 103.142605,193.861032 C103.687365,193.977636 104.26492,193.984924 104.827899,193.994034 C104.835187,194.338381 104.851585,194.684549 104.893489,195.028896 C104.964545,195.626492 104.990052,196.701437 105.706075,196.909139 C105.809925,196.940112 106.121477,195.803221 106.146984,195.688438 C106.261767,195.143678 106.269054,194.566123 106.278164,194.003143 C106.642552,193.997678 107.00694,193.98128 107.369507,193.953951 C107.972569,193.908403 108.989212,193.826415 109.195091,193.119502 C109.224242,193.015652 108.085529,192.7041 107.972569,192.678593" id="Fill-71" fill="#D5D5FD"></path>
            </g>
            <g id="chica-copy-2" transform="translate(247.000000, 14.000000)" fill-rule="nonzero">
                <path d="M92.6746753,18.5626591 C96.1674026,13.6584866 99.938961,15.8543847 105.31013,11.7260962 C109.213766,8.72503536 113.293506,13.6584866 117.05039,11.535785 C120.807273,9.41308345 127.02961,8.82751061 129.436364,12.1213579 C131.843117,15.4152051 137.507792,15.8397454 142.189221,13.8048798 C148.705065,10.9941301 152.461948,13.1461103 155.734545,15.7958274 C166.007273,21.5344413 157.084675,39.4236917 149.864416,52.5551627 C141.059221,54.6632249 137.41974,43.8594059 128.321039,43.4934229 C121.144805,43.1859972 118.048312,50.198232 113.337532,44.0350778 C108.934935,38.1793494 110.123636,35.3539604 101.846753,36.1005658 C93.5698701,36.8471711 87.8024675,25.44314 92.6746753,18.5626591 Z" id="Path" fill="#263238"></path>
                <path d="M103.813247,45.1183876 C103.813247,45.2647808 103.974675,45.5429279 104.077403,45.7625177 L104.370909,46.4798444 C104.576364,46.9483027 104.811169,47.4314003 105.060649,47.9437765 C105.536677,48.8930786 106.070893,49.8122178 106.66026,50.6959689 C107.828435,52.4770132 109.18111,54.1305882 110.695974,55.6294201 L110.945455,55.8929279 L110.945455,55.8929279 C111.017217,55.9372319 111.096989,55.9670732 111.18026,55.9807638 C111.537605,56.0829385 111.911825,56.1128026 112.280909,56.0685997 C113.276865,55.974731 114.260438,55.778499 115.215974,55.4830269 C116.273092,55.176284 117.311832,54.8097069 118.327143,54.3850778 C119.369091,53.9898161 120.425714,53.5359972 121.423636,53.0968175 L122.612338,54.98529 C120.689983,56.426143 118.618788,57.657959 116.434026,58.6597595 C115.25247,59.1990701 114.011122,59.597096 112.735844,59.8455446 C111.963031,59.9696998 111.175281,59.9696998 110.402468,59.8455446 C109.890912,59.778924 109.394566,59.625434 108.934935,59.3917256 C108.693045,59.2593952 108.462368,59.1076198 108.245195,58.9379066 L108.113117,58.8354314 L108.113117,58.7622348 L107.937013,58.6012023 C106.987775,57.8103666 106.099833,56.9490718 105.280779,56.0246818 C104.859512,55.5574725 104.462748,55.0688425 104.092078,54.5607496 C103.725195,54.0922914 103.328961,53.5945545 102.991429,53.0968175 C102.276651,52.086466 101.629529,51.0301372 101.054286,49.9347242 C100.760779,49.37843 100.496623,48.8074965 100.247143,48.2365629 C100.115065,47.9437765 99.982987,47.6509901 99.8802597,47.3582037 C99.7775325,47.0654173 99.6601299,46.7726308 99.5427273,46.3920085 L103.813247,45.1183876 Z" id="Path" fill="#CE7A63"></path>
                <path d="M105.398182,48.3097595 L101.582597,52.7015559 C103.601789,54.4164968 105.458691,56.3129465 107.12987,58.3669731 L110.343766,54.98529 C108.830023,52.6638189 107.178551,50.4346682 105.398182,48.3097595 L105.398182,48.3097595 Z" id="Path" fill="#407BFF"></path>
                <path d="M100.12974,40.7558699 C104.136104,41.7952617 106.88039,48.9099717 106.997792,49.1881188 L101.7,54.531471 C101.7,54.531471 95.1254545,47.7534653 95.4923377,45.367256 C95.8592208,42.9810467 97.5028571,40.0531825 100.12974,40.7558699 Z" id="Path" fill="#263238"></path>
                <path d="M121.805195,52.7015559 L125.474026,51.8524752 L124.123896,56.2442716 C124.123896,56.2442716 121.012727,56.0685997 120.029481,54.5461103 L120.425714,53.8141443 C120.694778,53.2554952 121.201243,52.8470172 121.805195,52.7015559 Z" id="Path" fill="#CE7A63"></path>
                <polygon id="Path" fill="#CE7A63" points="129.216234 53.3603253 127.601948 56.4053041 124.153247 56.2735502 125.518052 51.9110325"></polygon>
                <path d="M70.7790909,8.24193777 L71.3220779,3.55735502 L74.9762338,6.30954738 C74.9762338,6.30954738 74.1690909,9.41308345 71.4981818,9.0324611 L70.7790909,8.24193777 Z" id="Path" fill="#CE7A63"></path>
                <polygon id="Path" fill="#CE7A63" points="71.821039 1.17114569 75.4458442 1.08330976 74.9762338 6.30954738 71.3220779 3.55735502"></polygon>
                <polygon id="Path" fill="#CE7A63" points="36.1453247 134.637836 39.1097403 137.726733 48.3698701 132.39802 45.4054545 129.309123"></polygon>
                <polygon id="Path" fill="#CE7A63" points="6.97077922 94.0137199 6.88272727 98.3908769 17.0233766 99.9865629 17.0967532 95.6094059"></polygon>
                <path d="M7.93935065,98.6397454 L9.40688312,93.9551627 C9.46912412,93.7894733 9.39218568,93.6039949 9.23077922,93.5306223 L5.67935065,91.8324611 C5.51040086,91.7539822 5.31680523,91.7470447 5.14264593,91.8132283 C4.96848663,91.879412 4.82858798,92.0130832 4.75480519,92.1838048 C4.75480519,92.1838048 4.75480519,92.1838048 4.75480519,92.1838048 C4.25584416,93.8234088 4.10909091,94.6432107 3.4487013,96.707355 C3.05246753,97.980976 1.98116883,100.718529 1.42350649,102.475248 C0.865844156,104.231966 2.56818182,104.832178 2.89103896,104.188048 C3.93386263,102.154257 5.49217032,100.428174 7.41103896,99.1814003 C7.6436695,99.065901 7.82998296,98.8748819 7.93935065,98.6397454 Z" id="Path" fill="#263238"></path>
                <path d="M40.5919481,137.448586 L38.7428571,132.60297 C38.681345,132.417409 38.4970579,132.300981 38.3025974,132.324823 L34.0614286,132.720085 C33.7082224,132.751112 33.4426146,133.054843 33.4597403,133.408133 L33.4597403,133.598444 C34.1348052,135.281966 34.5457143,136.072489 35.3528571,138.20983 C35.8518182,139.527369 37.334026,143.860608 38.0237662,145.675884 C38.7135065,147.49116 40.635974,147.139816 40.5185714,146.349293 C40.0049351,142.806577 39.9609091,139.615205 40.5185714,138.239109 C40.6383212,137.993196 40.6643987,137.712251 40.5919481,137.448586 Z" id="Path" fill="#263238"></path>
                <polygon id="Path" fill="#000000" opacity="0.2" points="48.3698701 132.39802 43.4683117 135.208769 40.6066234 132.061315 45.3907792 129.309123"></polygon>
                <polygon id="Path" fill="#000000" opacity="0.2" points="17.0967532 95.6094059 17.0087013 99.9865629 11.798961 99.1521216 11.8723377 94.789604"></polygon>
                <path d="M103.681169,43.361669 C103.681169,43.361669 104.943247,45.1769448 86.467013,63.5200141 L72.0411688,53.1114569 C76.4437662,47.4314003 79.144026,43.815488 85.0581818,29.6885431 C87.380118,30.7365922 89.6259941,31.9448246 91.7794805,33.3044554 C94.061358,34.7485449 96.2476159,36.3377616 98.3246753,38.0622348 C100.951558,40.3898868 103.681169,43.361669 103.681169,43.361669 Z" id="Path" fill="#263238"></path>
                <path d="M97.767013,26.4971711 C96.6516883,28.8980198 94.2596104,33.0409477 91.7794805,33.3776521 C91.7794805,33.3776521 90.7962338,35.9248939 94.7145455,38.7649222 C99.0437662,41.8684583 98.3246753,38.0622348 98.3246753,38.0622348 C96.3728571,35.8077793 97.7083117,34.1096181 99.2932468,32.7481612 L97.767013,26.4971711 Z" id="Path" fill="#CE7A63"></path>
                <path d="M98.3246753,29.0736917 L99.2345455,32.8213579 C98.8623673,33.1315646 98.5140716,33.4692187 98.1925974,33.831471 C97.4001299,33.055587 96.6223377,31.2695898 97.2093506,30.2887553 C97.5052498,29.8204259 97.8830142,29.4088796 98.3246753,29.0736917 Z" id="Path" fill="#000000" opacity="0.2"></path>
                <path d="M98.3246753,21.5490806 C96.7397403,25.5895332 95.9619481,27.2730552 97.0332468,30.2155587 C97.6073468,32.1895204 99.2283368,33.6851571 101.24585,34.1023959 C103.263363,34.5196347 105.346803,33.7901053 106.66026,32.2065064 C109.155065,29.0736917 111.327013,22.9983734 108.127792,19.6313296 C107.07442,18.4640648 105.59515,17.7678339 104.022238,17.6990158 C102.449326,17.6301977 100.914631,18.1945614 99.7628571,19.2653465 C99.1155976,19.9075805 98.623727,20.6886373 98.3246753,21.5490806 L98.3246753,21.5490806 Z" id="Path" fill="#CE7A63"></path>
                <path d="M96.1674026,24.5062235 C95.7858442,27.7268741 102.507143,20.5682461 106.953766,22.7202263 C110.255714,24.3159123 114.849091,24.7258133 115.656234,22.0028996 C116.463377,19.2799859 109.125714,14.683239 102.874026,16.0446959 C96.9892208,17.3036775 96.6516883,20.2754597 96.1674026,24.5062235 Z" id="Path" fill="#263238"></path>
                <path d="M96.0206494,24.8868458 C95.7575181,25.6823126 95.8154227,26.5487498 96.1820779,27.3023338 C96.681039,28.2978076 97.7523377,28.0489392 98.2953247,27.1413013 C98.8383117,26.2336634 99.1318182,24.8429279 98.2953247,24.1402405 C97.673503,23.6675298 96.7893562,23.7640967 96.2848052,24.3598303 C96.1618568,24.5158272 96.0719847,24.6951303 96.0206494,24.8868458 Z" id="Path" fill="#CE7A63"></path>
                <path d="M86.467013,63.5200141 C86.467013,63.5200141 82.0644156,102.314215 74.037013,112.942362 C65.6280519,124.024328 45.9777922,135.179491 45.9777922,135.179491 L40.9735065,130.407072 C40.9735065,130.407072 59.0535065,116.411881 63.6175325,106.984158 C69.8985714,93.8087694 74.0076623,54.6193069 74.0076623,54.6193069 L86.467013,63.5200141 Z" id="Path" fill="#407BFF"></path>
                <polygon id="Path" fill="#263238" points="40.5185714 129.982532 46.0805195 135.765064 49.1623377 134.34505 43.3068831 127.65488"></polygon>
                <path d="M77.6471429,63.7688826 C77.4123377,68.3656294 74.4038961,74.3970297 70.7937662,78.1300566 C71.3807792,74.499505 71.9090909,70.9860679 72.3493506,67.8825318 C73.8895853,66.2442838 75.677098,64.8563093 77.6471429,63.7688826 L77.6471429,63.7688826 Z" id="Path" fill="#000000" opacity="0.2"></path>
                <path d="M82.6514286,60.7678218 C82.6514286,60.7678218 65.2024675,81.980198 53.1246753,94.1161952 C43.3802597,103.93918 13.1197403,100.352546 13.1197403,100.352546 L13.515974,94.3650636 C13.515974,94.3650636 35.9692208,94.4675389 42.6611688,87.8359264 C64.0724675,66.5649929 62.7516883,56.2296322 72.0118182,53.1407355 L82.6514286,60.7678218 Z" id="Path" fill="#407BFF"></path>
                <polygon id="Path" fill="#263238" points="13.4425974 93.3403112 12.8996104 101.626167 16.7592208 102.972984 17.1701299 93.6184583"></polygon>
                <path d="M72.4374026,52.115983 L70.8377922,52.9211457 C70.7203896,52.9943423 70.8377922,53.1846535 70.9258442,53.301768 L86.0707792,64.2373409 C86.173323,64.3206695 86.3204432,64.3206695 86.422987,64.2373409 L87.4796104,63.0515559 C87.4796104,62.9783593 87.4796104,62.8173267 87.3622078,62.7148515 L72.6868831,52.1745403 C72.6161888,52.1198166 72.5251412,52.0984462 72.4374026,52.115983 L72.4374026,52.115983 Z" id="Path" fill="#407BFF"></path>
                <path d="M72.4374026,52.115983 L70.8377922,52.9211457 C70.7203896,52.9943423 70.8377922,53.1846535 70.9258442,53.301768 L86.0707792,64.2373409 C86.173323,64.3206695 86.3204432,64.3206695 86.422987,64.2373409 L87.4796104,63.0515559 C87.4796104,62.9783593 87.4796104,62.8173267 87.3622078,62.7148515 L72.6868831,52.1745403 C72.6161888,52.1198166 72.5251412,52.0984462 72.4374026,52.115983 L72.4374026,52.115983 Z" id="Path" fill="#FFFFFF" opacity="0.4"></path>
                <path d="M73.2151948,55.1609618 L72.818961,54.8828147 C72.7455844,54.8828147 72.7162338,54.7364215 72.7455844,54.6925035 L74.2131169,53.2285714 C74.2131169,53.2285714 74.3451948,53.2285714 74.4332468,53.2285714 L74.8148052,53.5067185 C74.8148052,53.5067185 74.9175325,53.6384724 74.8148052,53.6970297 L73.3472727,55.1609618 C73.3472727,55.1609618 73.2885714,55.2195191 73.2151948,55.1609618 Z" id="Path" fill="#407BFF"></path>
                <path d="M84.8674026,63.5639321 L84.4711688,63.285785 C84.4711688,63.285785 84.3684416,63.1540311 84.4711688,63.0954738 L85.9387013,61.5583451 C85.9387013,61.5583451 86.0707792,61.5583451 86.1588312,61.5583451 L86.5403896,61.8364922 C86.6284416,61.8364922 86.6577922,61.9828854 86.6137662,62.0268034 L85.1462338,63.5639321 C85.0675148,63.6364752 84.9461215,63.6364752 84.8674026,63.5639321 L84.8674026,63.5639321 Z" id="Path" fill="#407BFF"></path>
                <path d="M79.0412987,59.362447 L78.6450649,59.0842999 C78.6450649,59.0842999 78.5423377,58.9379066 78.6450649,58.8939887 L80.1125974,57.4300566 C80.1745967,57.3724116 80.2707279,57.3724116 80.3327273,57.4300566 L80.7142857,57.7082037 C80.8023377,57.7082037 80.8316883,57.8399576 80.7142857,57.8985149 L79.2467532,59.362447 C79.1853642,59.4064275 79.1026878,59.4064275 79.0412987,59.362447 L79.0412987,59.362447 Z" id="Path" fill="#407BFF"></path>
                <path d="M103.754545,25.4138614 C103.593117,25.7359264 103.651818,26.0872702 103.857273,26.1751061 C104.062727,26.262942 104.356234,26.0872702 104.517662,25.7798444 C104.679091,25.4724187 104.605714,25.121075 104.40026,25.0185997 C104.194805,24.9161245 103.901299,25.1064356 103.754545,25.4138614 Z" id="Path" fill="#263238"></path>
                <path d="M107.379351,27.1120226 C107.213658,27.3496503 107.258331,27.6743217 107.482078,27.858628 C107.687532,27.9611033 107.981039,27.7854314 108.142468,27.4633663 C108.303896,27.1413013 108.230519,26.8045969 108.025065,26.7021216 C107.81961,26.5996464 107.526104,26.7899576 107.379351,27.1120226 Z" id="Path" fill="#263238"></path>
                <path d="M107.937013,26.672843 L108.817532,26.8045969 C108.817532,26.8045969 108.127792,27.2291372 107.937013,26.672843 Z" id="Path" fill="#263238"></path>
                <path d="M106.161299,27.2144979 C106.106671,28.0731457 106.170868,28.9352076 106.352078,29.7763791 C105.911011,29.8705807 105.451019,29.7572144 105.104675,29.4689533 L106.161299,27.2144979 Z" id="Path" fill="#BA4D3C"></path>
                <path d="M103.402338,30.2009194 C103.44053,30.2328936 103.496224,30.2328936 103.534416,30.2009194 C103.568756,30.1581336 103.568756,30.097312 103.534416,30.0545262 C102.721929,29.6951949 102.128419,28.9727797 101.934805,28.1074965 C101.934805,28.1074965 101.934805,28.0050212 101.817403,28.0196605 L101.817403,28.0196605 C101.758352,28.0270802 101.714209,28.0774053 101.714672,28.1367751 C101.908874,29.0809646 102.55648,29.8693241 103.446364,30.2448373 L103.402338,30.2009194 Z" id="Path" fill="#263238"></path>
                <path d="M103.666494,24.0670438 C103.714305,24.0817207 103.765435,24.0817207 103.813247,24.0670438 C104.2863,23.8574734 104.831042,23.8846437 105.280779,24.1402405 C105.366561,24.2087526 105.488504,24.2087526 105.574286,24.1402405 C105.649025,24.056884 105.649025,23.9308105 105.574286,23.847454 C104.99556,23.5146881 104.292593,23.4766362 103.681169,23.7449788 C103.574247,23.7919297 103.522713,23.9140222 103.563766,24.0231259 L103.563766,24.0231259 C103.593966,24.0457998 103.629207,24.0608659 103.666494,24.0670438 Z" id="Path" fill="#263238"></path>
                <path d="M109.83013,26.219024 L109.918182,26.219024 C110.034399,26.1967726 110.112185,26.0868456 110.094286,25.9701556 C110.005327,25.3080817 109.600686,24.7298827 109.008312,24.4183876 C108.902789,24.3753761 108.781807,24.4198393 108.729481,24.5208628 C108.705563,24.5730205 108.70465,24.6327892 108.726962,24.6856501 C108.749274,24.738511 108.792769,24.7796268 108.846883,24.7990099 C109.310493,25.0550279 109.621929,25.5183107 109.683377,26.0433522 C109.695459,26.1247024 109.752095,26.1924993 109.83013,26.219024 L109.83013,26.219024 Z" id="Path" fill="#263238"></path>
                <path d="M81.2866234,33.099505 L80.7876623,32.8359972 L80.3474026,32.5871287 L79.5255844,32.0601132 C79.0119481,31.6941301 78.4836364,31.3281471 78.0580519,30.9328854 C77.0781397,30.1405798 76.15159,29.2847681 75.2844156,28.3710042 C74.4176077,27.4536187 73.6181792,26.4751313 72.8923377,25.44314 C72.5107792,24.9454031 72.1879221,24.4183876 71.8357143,23.891372 C71.4835065,23.3643564 71.2046753,22.8373409 70.8964935,22.251768 C69.6468303,19.9167587 69.0726736,17.2811035 69.2381818,14.6393211 C69.3238457,13.3850491 69.5202783,12.1407623 69.8251948,10.9209335 C69.9964565,10.3096103 70.2022396,9.70843823 70.4415584,9.12029703 C70.6407591,8.50265966 70.8860332,7.90076547 71.1753247,7.31966054 L73.2298701,8.16874116 C72.9694609,9.21755947 72.7879601,10.2843186 72.6868831,11.3601132 C72.5841961,12.4263289 72.5841961,13.4999087 72.6868831,14.5661245 C72.7679604,16.5714132 73.3642593,18.5222736 74.4185714,20.2315417 C75.5955959,22.0322409 76.9580147,23.7053276 78.4836364,25.2235502 C79.2439039,25.9679818 80.0475522,26.6670047 80.8903896,27.3169731 C81.3012987,27.6536775 81.7415584,27.9611033 82.1671429,28.268529 L82.8128571,28.6930693 L83.1357143,28.8833805 L83.3851948,29.044413 L81.2866234,33.099505 Z" id="Path" fill="#CE7A63"></path>
                <path d="M75.5485714,21.5490806 L71.4541558,24.1109618 C73.2927266,27.0827996 75.5795845,29.7541305 78.2341558,32.0308345 L81.8442857,27.4340877 C79.5691319,25.6692878 77.4616684,23.6993068 75.5485714,21.5490806 Z" id="Path" fill="#407BFF"></path>
                <path d="M88.6683117,31.9283593 C88.4481818,30.0691655 81.0664935,26.4093352 81.0664935,26.4093352 L77.0454545,32.9238331 C78.6700791,35.0945152 80.5524638,37.060763 82.6514286,38.7795615 C84.7206494,40.2434936 88.9031169,34.0364215 88.6683117,31.9283593 Z" id="Path" fill="#263238"></path>
                <path d="M6.82402597,100.864922 C6.91735193,100.972918 7.04868463,101.041043 7.19090909,101.055233 C7.32108119,101.0861 7.45754447,101.040723 7.54311688,100.938119 C7.91,100.528218 7.54311688,99.0057284 7.44038961,98.8300566 C7.43315459,98.7873329 7.39576899,98.7562547 7.35233766,98.7568513 C7.35233766,98.7568513 7.35233766,98.7568513 7.24961039,98.7568513 C6.9561039,99.2545969 6.48649351,100.220792 6.7212987,100.674611 C6.74199246,100.744447 6.77697042,100.809246 6.82402597,100.864922 L6.82402597,100.864922 Z M7.33766234,99.1374823 C7.48441558,99.7230552 7.60181818,100.601414 7.41103896,100.806365 C7.36563335,100.832516 7.30969133,100.832516 7.26428571,100.806365 C7.12440832,100.797865 7.00045789,100.713561 6.94142857,100.586775 C6.80935065,100.308628 6.94142857,99.7523338 7.33766234,99.122843 L7.33766234,99.1374823 Z" id="Shape" fill="#407BFF"></path>
                <path d="M7.93935065,100.05976 C8.07842661,100.241124 8.27500061,100.370132 8.49701299,100.425743 C8.67058873,100.442882 8.83371749,100.340423 8.89324675,100.176874 C8.9512585,100.031136 8.9512585,99.8687937 8.89324675,99.7230552 C8.62909091,99.1374823 7.42571429,98.75686 7.42571429,98.7422207 C7.39287478,98.7283926 7.35582652,98.7283926 7.32298701,98.7422207 C7.30977052,98.7700151 7.30977052,98.8022621 7.32298701,98.8300566 C7.43731872,99.2794347 7.64756304,99.6988917 7.93935065,100.05976 L7.93935065,100.05976 Z M8.57038961,99.6205799 C8.62263863,99.6779272 8.66705013,99.7419197 8.70246753,99.8108911 C8.73189344,99.9062794 8.73189344,100.008289 8.70246753,100.103678 C8.70246753,100.220792 8.58506494,100.235431 8.52636364,100.220792 C8.21818182,100.220792 7.68987013,99.5034653 7.49909091,99.0057284 C7.89239883,99.1402807 8.25610135,99.3490209 8.57038961,99.6205799 L8.57038961,99.6205799 Z" id="Shape" fill="#407BFF"></path>
                <path d="M40.5919481,139.907992 C40.6954038,140.248563 40.9001081,140.549761 41.178961,140.771711 C41.3684339,140.865804 41.5911765,140.865804 41.7806494,140.771711 C41.8855035,140.738655 41.9676419,140.656719 42.0007792,140.552122 C42.1328571,139.995827 40.7533766,138.619731 40.5332468,138.356223 C40.4998222,138.326401 40.4492688,138.326401 40.4158442,138.356223 C40.3974937,138.387929 40.3974937,138.426993 40.4158442,138.458699 C40.4173273,138.947016 40.4764354,139.433462 40.5919481,139.907992 Z M41.7366234,140.36181 C41.7500682,140.429469 41.7500682,140.499102 41.7366234,140.566761 C41.70938,140.582451 41.6758148,140.582451 41.6485714,140.566761 C41.5279924,140.624596 41.387592,140.624596 41.267013,140.566761 C40.8141158,140.081226 40.5398858,139.45669 40.4892208,138.795403 C40.9794552,139.253987 41.3997161,139.781723 41.7366234,140.36181 Z" id="Shape" fill="#407BFF"></path>
                <path d="M40.2690909,138.546535 L40.2690909,138.546535 C40.6946753,139.000354 42.0007792,139.776238 42.441039,139.542008 C42.5290909,139.542008 42.6318182,139.366337 42.5731169,139.117468 C42.3236364,138.107355 40.4158442,138.356223 40.3277922,138.370863 C40.3005488,138.355172 40.2669836,138.355172 40.2397403,138.370863 L40.2690909,138.546535 Z M42.3676623,139.132107 L42.3676623,139.132107 C42.3676623,139.234583 42.3676623,139.29314 42.3676623,139.322419 C42.3676623,139.351697 41.1202597,138.956436 40.5919481,138.517256 C41.1055844,138.517256 42.1768831,138.517256 42.397013,139.058911 L42.3676623,139.132107 Z" id="Shape" fill="#407BFF"></path>
                <path d="M104.297532,24.9893211 L105.178052,25.1357143 C105.178052,25.1357143 104.502987,25.5456153 104.297532,24.9893211 Z" id="Path" fill="#263238"></path>
            </g>
            <g id="cohete-copy-2" transform="translate(286.000000, 166.000000)" fill-rule="nonzero">
                <path d="M21.0082192,47.7323944 L30.7162427,57.4366197 L57.8818004,31.8450704 C48.5260274,28.2676056 30.3076321,38.4084507 21.0082192,47.7323944 Z" id="Path" fill="#263238"></path>
                <path d="M54.8524462,81.5352113 L45.0880626,71.8309859 L70.6896282,44.6619718 C74.3107632,54.0140845 64.1518591,72.2394366 54.8524462,81.5352113 Z" id="Path" fill="#263238"></path>
                <path d="M91.9937378,20.4084507 L102.575342,0 L82.1729941,10.5915493 C75.6184706,13.9659691 69.5632524,18.2318769 64.1800391,23.2676056 L29.3917808,56.084507 L46.4970646,73.2394366 L79.2422701,38.4647887 C84.3108775,33.0670636 88.6026054,26.9898895 91.9937378,20.4084507 L91.9937378,20.4084507 Z" id="Path" fill="#407BFF"></path>
                <path d="M91.9937378,20.4084507 L102.575342,0 L82.1729941,10.5915493 C75.6184706,13.9659691 69.5632524,18.2318769 64.1800391,23.2676056 L29.3917808,56.084507 L46.4970646,73.2394366 L79.2422701,38.4647887 C84.3108775,33.0670636 88.6026054,26.9898895 91.9937378,20.4084507 L91.9937378,20.4084507 Z" id="Path" fill="#FFFFFF" opacity="0.6"></path>
                <ellipse id="Oval" fill="#FFFFFF" cx="70.2528376" cy="32.3098592" rx="7.15772994" ry="7.15492958"></ellipse>
                <ellipse id="Oval" fill="#407BFF" cx="70.2528376" cy="32.3098592" rx="4.59334638" ry="4.5915493"></ellipse>
                <polygon id="Path" fill="#407BFF" opacity="0.3" points="52.2598826 67.028169 35.5209393 50.2957746 49.2305284 37.4084507 65.1663405 53.3380282"></polygon>
                <path d="M24.7984344,63.0422535 C12.272407,64.056338 8.11585127,72.0704225 6.6927593,82.7605634 C5.9741683,88.1971831 5.65009785,93.7042254 1.05675147,96.8450704 C0.48074816,97.2236326 0.227645954,97.9394565 0.437742641,98.5957518 C0.647839329,99.2520471 1.26965641,99.6880064 1.95851272,99.6619718 C18.7819961,99.1408451 26.630137,90.9014085 27.6164384,87.4647887 C27.3535938,89.2649502 26.8807042,91.0281384 26.2074364,92.7183099 C25.9668934,93.3313029 26.1441997,94.0293668 26.6481467,94.4534095 C27.1520938,94.8774521 27.8704399,94.9330284 28.4336595,94.5915493 C33.153816,91.6338028 39.0716243,86.1408451 39.4661448,77.3661972 C36.0563601,72.4507042 24.7984344,63.0422535 24.7984344,63.0422535 Z" id="Path" fill="#407BFF"></path>
                <path d="M24.7984344,63.0422535 C12.272407,64.056338 8.11585127,72.0704225 6.6927593,82.7605634 C5.9741683,88.1971831 5.65009785,93.7042254 1.05675147,96.8450704 C0.48074816,97.2236326 0.227645954,97.9394565 0.437742641,98.5957518 C0.647839329,99.2520471 1.26965641,99.6880064 1.95851272,99.6619718 C18.7819961,99.1408451 26.630137,90.9014085 27.6164384,87.4647887 C27.3535938,89.2649502 26.8807042,91.0281384 26.2074364,92.7183099 C25.9668934,93.3313029 26.1441997,94.0293668 26.6481467,94.4534095 C27.1520938,94.8774521 27.8704399,94.9330284 28.4336595,94.5915493 C33.153816,91.6338028 39.0716243,86.1408451 39.4661448,77.3661972 C36.0563601,72.4507042 24.7984344,63.0422535 24.7984344,63.0422535 Z" id="Path" fill="#FFFFFF" opacity="0.2"></path>
                <polygon id="Path" fill="#407BFF" points="41.4669276 81.1549296 21.3886497 61.084507 32.0829746 58.7746479 43.7776908 70.4647887"></polygon>
            </g>
            <g id="Group-7-Copy" transform="translate(372.857143, 97.142857)" fill="#407BFF" fill-rule="nonzero" opacity="0.2">
                <circle id="Oval" cx="10.5230634" cy="10.5230634" r="10.5230634"></circle>
                <path d="M17.1705917,2.37787077 C12.3512672,0.891288049 7.15537827,3.03763055 4.79018256,7.49202898 C2.42498686,11.9464274 3.55735934,17.4529491 7.4883223,20.6125924 C8.47210912,20.9113569 9.49491474,21.0618997 10.5230634,21.0593339 C14.9831225,21.075433 18.9676691,18.2747943 20.4628911,14.0728067 C21.9581131,9.87081923 20.6383397,5.18270799 17.1705917,2.37787077 L17.1705917,2.37787077 Z" id="Path"></path>
            </g>
            <g id="Group-8-Copy-2" transform="translate(235.714286, 183.571429)" fill-rule="nonzero">
                <circle id="Oval" fill="#407BFF" cx="7.55400934" cy="7.55400934" r="7.55400934"></circle>
                <path d="M3.55877773,6.26143441 C4.6429681,2.90850462 7.90564904,0.754298609 11.4149475,1.074348 C10.9299774,0.778844824 10.4115331,0.542163759 9.87057221,0.369307123 C5.95933007,-0.735289796 1.87517327,1.45271664 0.627972099,5.3208478 C-0.619229069,9.18897896 1.41762376,13.350582 5.23744648,14.7387116 C5.78190381,14.9160531 6.34533092,15.0287385 6.91611522,15.0744453 C3.87545776,13.2819312 2.48146465,9.62269924 3.55877773,6.26143441 L3.55877773,6.26143441 Z" id="Path" fill="#FFFFFF" opacity="0.2"></path>
            </g>
        </g>
    </g>
</svg>