<?xml version="1.0" encoding="UTF-8"?>
<svg width="500px" height="356px" viewBox="0 0 500 356" version="1.1" xmlns="http://www.w3.org/2000/svg" xmlns:xlink="http://www.w3.org/1999/xlink">
    <!-- Generator: Sketch 63.1 (92452) - https://sketch.com -->
    <title>Derecha Copy</title>
    <desc>Created with Sketch.</desc>
    <defs>
        <linearGradient x1="14.2515674%" y1="50%" x2="96.472553%" y2="49.6023992%" id="linearGradient-1">
            <stop stop-color="#164372" offset="0%"></stop>
            <stop stop-color="#04458F" offset="100%"></stop>
        </linearGradient>
    </defs>
    <g id="Stories-maquetados" stroke="none" stroke-width="1" fill="none" fill-rule="evenodd">
        <g id="Derecha-Copy">
            <g id="Forma2-Copy-3" transform="translate(51.282051, 152.142857)" fill="url(#linearGradient-1)" opacity="0.478422619">
                <path d="M440.150929,20.2723534 C439.947484,19.9849297 439.74107,19.6975061 439.528715,19.413061 C417.176513,-10.6681307 368.952663,-0.237482308 340.244667,13.6735237 C321.159463,22.920225 305.69914,37.7724317 288.030625,49.2500169 C268.346966,62.0366455 245.94576,66.8498745 222.655039,66.5833002 C202.286796,66.3509785 182.286832,62.273435 162.133914,60.1110561 C141.443426,57.8920861 120.608893,57.0372614 99.8055455,57.5733884 C75.9802252,58.1884452 50.3001414,60.0872283 28.7825092,71.432271 C4.7195891,84.1206096 -6.74014643,109.665571 5.04628883,134.997571 C15.6684851,157.826156 38.3859963,176.53252 61.5163372,185.621362 C92.9849462,197.983557 127.867567,199.839152 161.275585,197.803358 C197.105635,195.624598 233.001025,192.906732 268.372211,186.447891 C276.064505,185.043536 283.685519,183.363672 291.330292,181.729974 C350.464428,169.083334 418.703092,142.2472 442.047273,80.8487458 C445.580085,71.5588565 447.773428,61.774539 448.478802,51.8561898 C449.256942,40.9355809 446.520089,29.2956684 440.150929,20.2723534" id="Fill-1"></path>
            </g>
            <g id="estrellas-copy-3">
                <path d="M264.705173,186.365751 C263.618756,186.735605 264.080211,188.557545 265.181161,188.464626 C265.408255,188.444585 265.628082,188.337091 265.798856,188.180404 L265.918762,188.109348 C266.798069,187.411545 265.520893,186.088816 264.705173,186.365751" id="Fill-33" fill="#FFFFFF"></path>
                <path d="M236.215144,250.651465 C235.128728,251.021319 235.590182,252.84326 236.691133,252.750341 C236.918226,252.730299 237.138053,252.622805 237.308828,252.466118 L237.428733,252.395062 C238.30804,251.697259 237.030865,250.37453 236.215144,250.651465" id="Fill-33" fill="#FFFFFF"></path>
                <path d="M364.420272,264.937179 C363.333856,265.307033 363.795311,267.128974 364.896261,267.036055 C365.123355,267.016014 365.343181,266.908519 365.513956,266.751832 L365.633861,266.680777 C366.513168,265.982973 365.235993,264.660245 364.420272,264.937179" id="Fill-33" fill="#FFFFFF"></path>
                <path d="M385.787794,236.365751 C384.701377,236.735605 385.162832,238.557545 386.263782,238.464626 C386.490876,238.444585 386.710703,238.337091 386.881477,238.180404 L387.001383,238.109348 C387.88069,237.411545 386.603515,236.088816 385.787794,236.365751" id="Fill-33" fill="#FFFFFF"></path>
                <path d="M400.032808,186.365751 C398.946392,186.735605 399.407846,188.557545 400.508797,188.464626 C400.73589,188.444585 400.955717,188.337091 401.126491,188.180404 L401.246397,188.109348 C402.125704,187.411545 400.848529,186.088816 400.032808,186.365751" id="Fill-33" fill="#FFFFFF"></path>
                <path d="M378.665287,122.080037 C377.57887,122.449891 378.040325,124.271831 379.141275,124.178912 C379.368369,124.158871 379.588196,124.051376 379.75897,123.894689 L379.878876,123.823634 C380.758183,123.125831 379.481007,121.803102 378.665287,122.080037" id="Fill-33" fill="#FFFFFF"></path>
                <path d="M318.634885,209.57893 C317.548469,209.948784 318.009923,211.770724 319.110874,211.677805 C319.337968,211.657764 319.557794,211.55027 319.728569,211.393583 L319.848474,211.322527 C320.727781,210.624724 319.450606,209.301995 318.634885,209.57893" id="Fill-33-Copy" fill="#FFFFFF"></path>
                <path d="M354.116009,158.181987 C353.029593,158.551841 353.491048,160.373782 354.591998,160.280863 C354.819092,160.260821 355.038918,160.153327 355.209693,159.99664 L355.329598,159.925584 C356.208905,159.227781 354.93173,157.905052 354.116009,158.181987" id="Fill-33-Copy" fill="#FFFFFF"></path>
                <path d="M337.032505,295.240501 C335.946089,295.610355 336.407543,297.432295 337.508494,297.339376 C337.735587,297.319335 337.955414,297.21184 338.126189,297.055154 L338.246094,296.984098 C339.125401,296.286295 337.848226,294.963566 337.032505,295.240501" id="Fill-33-Copy" fill="#FFFFFF"></path>
                <path d="M239.787943,300.511982 C238.701527,300.881836 239.162981,302.703777 240.263932,302.610858 C240.491025,302.590816 240.710852,302.483322 240.881626,302.326635 L241.001532,302.255579 C241.880839,301.557776 240.603664,300.235047 239.787943,300.511982" id="Fill-33-Copy" fill="#FFFFFF"></path>
                <path d="M239.787943,300.511982 C238.701527,300.881836 239.162981,302.703777 240.263932,302.610858 C240.491025,302.590816 240.710852,302.483322 240.881626,302.326635 L241.001532,302.255579 C241.880839,301.557776 240.603664,300.235047 239.787943,300.511982" id="Fill-33-Copy" fill="#FFFFFF"></path>
                <path d="M242.116432,75.9093305 C241.030016,76.2791845 241.49147,78.101125 242.592421,78.008206 C242.819514,77.9881647 243.039341,77.8806702 243.210116,77.7239833 L243.330021,77.6529276 C244.209328,76.9551244 242.932153,75.6323956 242.116432,75.9093305" id="Fill-41" fill="#FFFFFF"></path>
                <path d="M311.152925,84.7129472 C310.066509,85.0828011 310.527963,86.9047417 311.628914,86.8118227 C311.856008,86.7917813 312.075834,86.6842869 312.246609,86.5276 L312.366514,86.4565443 C313.245821,85.7587411 311.968646,84.4360122 311.152925,84.7129472" id="Fill-43" fill="#FFFFFF"></path>
                <path d="M162.17944,181.274885 C161.093024,181.644739 161.554478,183.466679 162.655428,183.375582 C162.882522,183.355541 163.102349,183.246224 163.273123,183.091359 L163.393029,183.020304 C164.272336,182.320679 162.995161,180.99795 162.17944,181.274885" id="Fill-45" fill="#FFFFFF"></path>
                <path d="M149.462191,106.576234 C148.375775,106.946088 148.837229,108.768028 149.93818,108.675109 C150.165273,108.655068 150.3851,108.547573 150.555875,108.390886 L150.67578,108.319831 C151.555087,107.622028 150.277912,106.299299 149.462191,106.576234" id="Fill-49" fill="#FFFFFF"></path>
                <path d="M0.618884725,1.35541906 C-0.467531669,1.72527299 -0.00607721443,3.54721353 1.09487318,3.45429456 C1.32196691,3.43425321 1.54179363,3.32675872 1.71256812,3.17007184 L1.83247361,3.09901616 C2.71178052,2.40121293 1.4346054,1.0784841 0.618884725,1.35541906" id="Fill-49-Copy-3" fill="#FFFFFF"></path>
                <path d="M213.454297,147.210973 C213.045528,147.125342 212.622225,147.098013 212.20619,147.092547 C212.062667,147.090725 211.917327,147.087081 211.773803,147.083438 C211.768353,146.719049 211.752002,146.354661 211.726568,145.992095 C211.679332,145.389033 211.599395,144.37239 210.894496,144.168333 C210.789125,144.13736 210.478461,145.276073 210.454843,145.390855 C210.367639,145.79897 210.342204,146.223482 210.334937,146.642528 C210.333121,146.786461 210.329487,146.930395 210.325854,147.07615 C209.982488,147.083438 209.637306,147.098013 209.295757,147.139918 C208.698046,147.210973 207.626163,147.238303 207.419054,147.954325 C207.388169,148.058176 208.521821,148.369728 208.638093,148.393413 C209.181301,148.510017 209.757211,148.517305 210.318587,148.526414 C210.325854,148.872583 210.342204,149.21693 210.38399,149.561277 C210.454843,150.158873 210.480277,151.233818 211.19426,151.441519 C211.297815,151.472492 211.608479,150.335601 211.633914,150.220819 C211.750186,149.674237 211.755636,149.098504 211.76472,148.535524 C212.129886,148.530058 212.491419,148.513661 212.854769,148.486332 C213.454297,148.440783 214.468043,148.358796 214.673336,147.651883 C214.702404,147.548032 213.566935,147.234659 213.454297,147.210973" id="Fill-57" fill="#D5D5FD"></path>
                <path d="M213.454297,147.210973 C213.045528,147.125342 212.622225,147.098013 212.20619,147.092547 C212.062667,147.090725 211.917327,147.087081 211.773803,147.083438 C211.768353,146.719049 211.752002,146.354661 211.726568,145.992095 C211.679332,145.389033 211.599395,144.37239 210.894496,144.168333 C210.789125,144.13736 210.478461,145.276073 210.454843,145.390855 C210.367639,145.79897 210.342204,146.223482 210.334937,146.642528 C210.333121,146.786461 210.329487,146.930395 210.325854,147.07615 C209.982488,147.083438 209.637306,147.098013 209.295757,147.139918 C208.698046,147.210973 207.626163,147.238303 207.419054,147.954325 C207.388169,148.058176 208.521821,148.369728 208.638093,148.393413 C209.181301,148.510017 209.757211,148.517305 210.318587,148.526414 C210.325854,148.872583 210.342204,149.21693 210.38399,149.561277 C210.454843,150.158873 210.480277,151.233818 211.19426,151.441519 C211.297815,151.472492 211.608479,150.335601 211.633914,150.220819 C211.750186,149.674237 211.755636,149.098504 211.76472,148.535524 C212.129886,148.530058 212.491419,148.513661 212.854769,148.486332 C213.454297,148.440783 214.468043,148.358796 214.673336,147.651883 C214.702404,147.548032 213.566935,147.234659 213.454297,147.210973" id="Fill-57" fill="#D5D5FD"></path>
                <path d="M223.914081,110.499415 C222.572996,110.954978 223.142621,113.19913 224.501647,113.084679 C224.781974,113.059993 225.053331,112.927588 225.264137,112.734591 L225.412149,112.647069 C226.497576,111.787558 224.921016,110.158303 223.914081,110.499415" id="Fill-49-Copy" fill="#FFFFFF"></path>
                <path d="M327.978769,29.0393973 C326.637684,29.4949603 327.207309,31.7391129 328.566335,31.6246612 C328.846662,31.5999755 329.118018,31.4675705 329.328824,31.2745733 L329.476837,31.1870514 C330.562264,30.3275409 328.985704,28.6982861 327.978769,29.0393973" id="Fill-49-Copy-2" fill="#FFFFFF"></path>
                <path d="M171.263189,92.0007093 C170.176773,92.3705633 170.638227,94.1925038 171.739178,94.0995848 C171.966271,94.0795435 172.186098,93.972049 172.356872,93.8153621 L172.476778,93.7443064 C173.356085,93.0465032 172.07891,91.7237744 171.263189,92.0007093" id="Fill-51" fill="#FFFFFF"></path>
                <path d="M213.454297,147.210973 C213.045528,147.125342 212.622225,147.098013 212.20619,147.092547 C212.062667,147.090725 211.917327,147.087081 211.773803,147.083438 C211.768353,146.719049 211.752002,146.354661 211.726568,145.992095 C211.679332,145.389033 211.599395,144.37239 210.894496,144.168333 C210.789125,144.13736 210.478461,145.276073 210.454843,145.390855 C210.367639,145.79897 210.342204,146.223482 210.334937,146.642528 C210.333121,146.786461 210.329487,146.930395 210.325854,147.07615 C209.982488,147.083438 209.637306,147.098013 209.295757,147.139918 C208.698046,147.210973 207.626163,147.238303 207.419054,147.954325 C207.388169,148.058176 208.521821,148.369728 208.638093,148.393413 C209.181301,148.510017 209.757211,148.517305 210.318587,148.526414 C210.325854,148.872583 210.342204,149.21693 210.38399,149.561277 C210.454843,150.158873 210.480277,151.233818 211.19426,151.441519 C211.297815,151.472492 211.608479,150.335601 211.633914,150.220819 C211.750186,149.674237 211.755636,149.098504 211.76472,148.535524 C212.129886,148.530058 212.491419,148.513661 212.854769,148.486332 C213.454297,148.440783 214.468043,148.358796 214.673336,147.651883 C214.702404,147.548032 213.566935,147.234659 213.454297,147.210973" id="Fill-57" fill="#D5D5FD"></path>
                <path d="M266.230772,111.108627 C265.822003,111.022996 265.398701,110.995667 264.982665,110.990201 C264.839142,110.988379 264.693802,110.984735 264.550278,110.981092 C264.544828,110.616703 264.528477,110.252315 264.503043,109.889749 C264.455807,109.286687 264.37587,108.270044 263.670972,108.065987 C263.5656,108.035014 263.254936,109.173727 263.231318,109.288509 C263.144114,109.696623 263.11868,110.121136 263.111413,110.540182 C263.109596,110.684115 263.105962,110.828049 263.102329,110.973804 C262.758963,110.981092 262.413781,110.995667 262.072232,111.037572 C261.474521,111.108627 260.402639,111.135956 260.195529,111.851979 C260.164644,111.95583 261.298296,112.267382 261.414568,112.291067 C261.957776,112.407671 262.533686,112.414959 263.095062,112.424068 C263.102329,112.770237 263.11868,113.114584 263.160465,113.458931 C263.231318,114.056527 263.256753,115.131472 263.970735,115.339173 C264.07429,115.370146 264.384954,114.233255 264.410389,114.118473 C264.526661,113.571891 264.532111,112.996158 264.541195,112.433178 C264.906361,112.427712 265.267895,112.411315 265.631245,112.383986 C266.230772,112.338437 267.244518,112.25645 267.449811,111.549537 C267.478879,111.445686 266.343411,111.132313 266.230772,111.108627" id="Fill-57" fill="#D5D5FD"></path>
                <path d="M88.8251519,22.8113158 C88.4163831,22.7256846 87.9930804,22.6983555 87.5770447,22.6928897 C87.4335215,22.6910678 87.2881815,22.6874239 87.1446583,22.68378 C87.139208,22.3193919 87.1228573,21.9550038 87.0974228,21.5924376 C87.0501873,20.9893753 86.9702503,19.9727325 86.2653513,19.7686751 C86.1599799,19.7377021 85.8493156,20.876415 85.8256979,20.9911972 C85.7384939,21.3993119 85.7130594,21.8238241 85.7057924,22.2428704 C85.7039757,22.3868037 85.7003422,22.530737 85.6967087,22.6764922 C85.3533429,22.68378 85.0081605,22.6983555 84.6666115,22.7402601 C84.0689008,22.8113158 82.9970184,22.8386449 82.7899089,23.5546676 C82.7590242,23.6585182 83.8926761,23.97007 84.0089481,23.9937552 C84.5521563,24.1103594 85.128066,24.1176472 85.6894417,24.1267569 C85.6967087,24.4729256 85.7130594,24.8172724 85.7548446,25.1616191 C85.8256979,25.7592156 85.8511324,26.8341605 86.5651151,27.0418618 C86.6686698,27.0728347 86.979334,25.9359438 87.0047685,25.8211616 C87.1210405,25.2745794 87.1264908,24.6988462 87.1355745,24.1358666 C87.5007412,24.1304008 87.8622744,24.1140033 88.2256244,24.0866742 C88.8251519,24.0411257 89.8388983,23.9591384 90.044191,23.2522254 C90.073259,23.1483748 88.9377903,22.8350011 88.8251519,22.8113158" id="Fill-57-Copy-3" fill="#D5D5FD"></path>
                <path d="M52.0299121,299.564083 C51.6211434,299.478452 51.1978407,299.451123 50.781805,299.445657 C50.6382817,299.443835 50.4929418,299.440191 50.3494185,299.436548 C50.3439683,299.072159 50.3276175,298.707771 50.302183,298.345205 C50.2549475,297.742143 50.1750105,296.7255 49.4701116,296.521443 C49.3647401,296.49047 49.0540759,297.629183 49.0304581,297.743965 C48.9432542,298.152079 48.9178197,298.576592 48.9105527,298.995638 C48.9087359,299.139571 48.9051024,299.283505 48.9014689,299.42926 C48.5581032,299.436548 48.2129207,299.451123 47.8713718,299.493028 C47.2736611,299.564083 46.2017787,299.591412 45.9946692,300.307435 C45.9637844,300.411286 47.0974363,300.722838 47.2137083,300.746523 C47.7569165,300.863127 48.3328262,300.870415 48.8942019,300.879524 C48.9014689,301.225693 48.9178197,301.57004 48.9596049,301.914387 C49.0304581,302.511983 49.0558926,303.586928 49.7698753,303.794629 C49.8734301,303.825602 50.1840943,302.688711 50.2095288,302.573929 C50.3258008,302.027347 50.331251,301.451614 50.3403348,300.888634 C50.7055015,300.883168 51.0670347,300.866771 51.4303847,300.839442 C52.0299121,300.793893 53.0436585,300.711906 53.2489512,300.004993 C53.2780192,299.901142 52.1425506,299.587769 52.0299121,299.564083" id="Fill-57-Copy-4" fill="#D5D5FD"></path>
                <path d="M329.308326,234.988438 C328.899557,234.902806 328.476254,234.875477 328.060219,234.870011 C327.916696,234.86819 327.771356,234.864546 327.627832,234.860902 C327.622382,234.496514 327.606031,234.132126 327.580597,233.769559 C327.533361,233.166497 327.453424,232.149854 326.748525,231.945797 C326.643154,231.914824 326.33249,233.053537 326.308872,233.168319 C326.221668,233.576434 326.196233,234.000946 326.188966,234.419992 C326.18715,234.563925 326.183516,234.707859 326.179883,234.853614 C325.836517,234.860902 325.491335,234.875477 325.149786,234.917382 C324.552075,234.988438 323.480192,235.015767 323.273083,235.731789 C323.242198,235.83564 324.37585,236.147192 324.492122,236.170877 C325.03533,236.287481 325.61124,236.294769 326.172616,236.303879 C326.179883,236.650047 326.196233,236.994394 326.238019,237.338741 C326.308872,237.936337 326.334306,239.011282 327.048289,239.218984 C327.151844,239.249957 327.462508,238.113066 327.487943,237.998283 C327.604215,237.451701 327.609665,236.875968 327.618749,236.312988 C327.983915,236.307523 328.345449,236.291125 328.708798,236.263796 C329.308326,236.218247 330.322072,236.13626 330.527365,235.429347 C330.556433,235.325497 329.420964,235.012123 329.308326,234.988438" id="Fill-57-Copy-5" fill="#D5D5FD"></path>
                <path d="M305.654243,145.373256 C305.245475,145.287625 304.822172,145.260295 304.406136,145.25483 C304.262613,145.253008 304.117273,145.249364 303.97375,145.24572 C303.968299,144.881332 303.951949,144.516944 303.926514,144.154378 C303.879279,143.551315 303.799342,142.534672 303.094443,142.330615 C302.989071,142.299642 302.678407,143.438355 302.654789,143.553137 C302.567585,143.961252 302.542151,144.385764 302.534884,144.80481 C302.533067,144.948744 302.529434,145.092677 302.5258,145.238432 C302.182434,145.24572 301.837252,145.260295 301.495703,145.3022 C300.897992,145.373256 299.82611,145.400585 299.619,146.116607 C299.588116,146.220458 300.721767,146.53201 300.838039,146.555695 C301.381248,146.672299 301.957157,146.679587 302.518533,146.688697 C302.5258,147.034866 302.542151,147.379212 302.583936,147.723559 C302.654789,148.321156 302.680224,149.3961 303.394206,149.603802 C303.497761,149.634775 303.808425,148.497884 303.83386,148.383101 C303.950132,147.836519 303.955582,147.260786 303.964666,146.697807 C304.329833,146.692341 304.691366,146.675943 305.054716,146.648614 C305.654243,146.603066 306.66799,146.521078 306.873282,145.814165 C306.90235,145.710315 305.766882,145.396941 305.654243,145.373256" id="Fill-57-Copy-6" fill="#D5D5FD"></path>
                <path d="M343.6427,102.328975 C343.233931,102.243344 342.810629,102.216015 342.394593,102.210549 C342.25107,102.208727 342.10573,102.205083 341.962206,102.201439 C341.956756,101.837051 341.940405,101.472663 341.914971,101.110097 C341.867735,100.507035 341.787798,99.4903919 341.0829,99.2863346 C340.977528,99.2553616 340.666864,100.394074 340.643246,100.508857 C340.556042,100.916971 340.530608,101.341484 340.523341,101.76053 C340.521524,101.904463 340.51789,102.048396 340.514257,102.194152 C340.170891,102.201439 339.825709,102.216015 339.48416,102.25792 C338.886449,102.328975 337.814567,102.356304 337.607457,103.072327 C337.576572,103.176178 338.710224,103.487729 338.826496,103.511415 C339.369704,103.628019 339.945614,103.635307 340.50699,103.644416 C340.514257,103.990585 340.530608,104.334932 340.572393,104.679279 C340.643246,105.276875 340.668681,106.35182 341.382663,106.559521 C341.486218,106.590494 341.796882,105.453603 341.822317,105.338821 C341.938589,104.792239 341.944039,104.216506 341.953123,103.653526 C342.318289,103.64806 342.679823,103.631663 343.043173,103.604334 C343.6427,103.558785 344.656446,103.476798 344.861739,102.769885 C344.890807,102.666034 343.755339,102.352661 343.6427,102.328975" id="Fill-57-Copy-7" fill="#D5D5FD"></path>
                <path d="M333.250673,54.4402035 C332.841904,54.3545723 332.418602,54.3272432 332.002566,54.3217774 C331.859043,54.3199555 331.713703,54.3163116 331.570179,54.3126677 C331.564729,53.9482796 331.548378,53.5838915 331.522944,53.2213253 C331.475708,52.618263 331.395771,51.6016202 330.690873,51.3975628 C330.585501,51.3665899 330.274837,52.5053027 330.251219,52.6200849 C330.164015,53.0281996 330.138581,53.4527118 330.131314,53.8717581 C330.129497,54.0156914 330.125863,54.1596247 330.12223,54.3053799 C329.778864,54.3126677 329.433682,54.3272432 329.092133,54.3691479 C328.494422,54.4402035 327.42254,54.4675327 327.21543,55.1835553 C327.184545,55.2874059 328.318197,55.5989577 328.434469,55.622643 C328.977677,55.7392471 329.553587,55.7465349 330.114963,55.7556446 C330.12223,56.1018133 330.138581,56.4461601 330.180366,56.7905068 C330.251219,57.3881033 330.276654,58.4630482 330.990636,58.6707495 C331.094191,58.7017225 331.404855,57.5648316 331.43029,57.4500493 C331.546562,56.9034671 331.552012,56.3277339 331.561096,55.7647543 C331.926262,55.7592885 332.287796,55.742891 332.651146,55.7155619 C333.250673,55.6700134 334.264419,55.5880261 334.469712,54.8811132 C334.49878,54.7772625 333.363312,54.4638888 333.250673,54.4402035" id="Fill-57-Copy-8" fill="#D5D5FD"></path>
                <path d="M241.262574,3.043261 C240.853805,2.9576298 240.430502,2.93030069 240.014467,2.92483487 C239.870943,2.92301293 239.725603,2.91936905 239.58208,2.91572516 C239.57663,2.55133706 239.560279,2.18694895 239.534845,1.82438278 C239.487609,1.22132047 239.407672,0.204677646 238.702773,0.000620306117 C238.597402,-0.030352683 238.286737,1.10836015 238.26312,1.22314241 C238.175916,1.63125709 238.150481,2.05576923 238.143214,2.47481555 C238.141397,2.61874886 238.137764,2.76268216 238.13413,2.9084374 C237.790765,2.91572516 237.445582,2.93030069 237.104033,2.97220532 C236.506323,3.043261 235.43444,3.07059011 235.227331,3.78661274 C235.196446,3.89046335 236.330098,4.20201518 236.44637,4.22570041 C236.989578,4.34230461 237.565488,4.34959237 238.126863,4.35870207 C238.13413,4.70487077 238.150481,5.04921753 238.192266,5.39356429 C238.26312,5.99116079 238.288554,7.06610571 239.002537,7.27380693 C239.106092,7.30477992 239.416756,6.16788902 239.44219,6.05310677 C239.558462,5.50652461 239.563913,4.9307914 239.572996,4.36781177 C239.938163,4.36234595 240.299696,4.34594849 240.663046,4.31861938 C241.262574,4.27307086 242.27632,4.19108354 242.481613,3.48417061 C242.510681,3.38032 241.375212,3.06694623 241.262574,3.043261" id="Fill-57-Copy-9" fill="#D5D5FD"></path>
                <path d="M278.057813,277.160288 C277.649045,277.074657 277.225742,277.047328 276.809706,277.041862 C276.666183,277.04004 276.520843,277.036396 276.37732,277.032752 C276.37187,276.668364 276.355519,276.303976 276.330084,275.94141 C276.282849,275.338347 276.202912,274.321705 275.498013,274.117647 C275.392641,274.086674 275.081977,275.225387 275.058359,275.340169 C274.971155,275.748284 274.945721,276.172796 274.938454,276.591842 C274.936637,276.735776 274.933004,276.879709 274.92937,277.025464 C274.586004,277.032752 274.240822,277.047328 273.899273,277.089232 C273.301562,277.160288 272.22968,277.187617 272.02257,277.90364 C271.991686,278.00749 273.125338,278.319042 273.24161,278.342727 C273.784818,278.459331 274.360728,278.466619 274.922103,278.475729 C274.92937,278.821898 274.945721,279.166244 274.987506,279.510591 C275.058359,280.108188 275.083794,281.183133 275.797777,281.390834 C275.901331,281.421807 276.211996,280.284916 276.23743,280.170134 C276.353702,279.623551 276.359152,279.047818 276.368236,278.484839 C276.733403,278.479373 277.094936,278.462975 277.458286,278.435646 C278.057813,278.390098 279.07156,278.30811 279.276853,277.601197 C279.305921,277.497347 278.170452,277.183973 278.057813,277.160288" id="Fill-57-Copy" fill="#D5D5FD"></path>
                <path d="M62.0827016,90.9348741 C61.6739329,90.8492429 61.2506302,90.8219138 60.8345945,90.816448 C60.6910713,90.8146261 60.5457313,90.8109822 60.4022081,90.8073383 C60.3967578,90.4429502 60.3804071,90.0785621 60.3549726,89.7159959 C60.3077371,89.1129336 60.2278001,88.0962908 59.5229011,87.8922334 C59.4175297,87.8612604 59.1068654,88.9999733 59.0832477,89.1147555 C58.9960437,89.5228702 58.9706092,89.9473824 58.9633422,90.3664287 C58.9615255,90.510362 58.957892,90.6542953 58.9542585,90.8000505 C58.6108927,90.8073383 58.2657103,90.8219138 57.9241613,90.8638184 C57.3264506,90.9348741 56.2545682,90.9622032 56.0474587,91.6782259 C56.016574,91.7820765 57.1502259,92.0936283 57.2664979,92.1173135 C57.8097061,92.2339177 58.3856158,92.2412055 58.9469915,92.2503152 C58.9542585,92.5964839 58.9706092,92.9408307 59.0123944,93.2851774 C59.0832477,93.8827739 59.1086822,94.9577188 59.8226649,95.1654201 C59.9262196,95.196393 60.2368838,94.0595021 60.2623183,93.9447199 C60.3785903,93.3981377 60.3840406,92.8224045 60.3931243,92.2594249 C60.758291,92.2539591 61.1198242,92.2375616 61.4831742,92.2102325 C62.0827016,92.164684 63.0964481,92.0826967 63.3017408,91.3757837 C63.3308088,91.2719331 62.1953401,90.9585594 62.0827016,90.9348741" id="Fill-59" fill="#D5D5FD"></path>
                <path d="M32.3891388,273.759298 C31.9803701,273.673667 31.5570674,273.646338 31.1410316,273.640872 C30.9975084,273.63905 30.8521684,273.635406 30.7086452,273.631763 C30.7031949,273.267374 30.6868442,272.902986 30.6614097,272.54042 C30.6141742,271.937358 30.5342372,270.920715 29.8293383,270.714836 C29.7239668,270.685685 29.4133026,271.824398 29.3896848,271.93918 C29.3024808,272.349116 29.2770463,272.773629 29.2697793,273.190853 C29.2679626,273.334786 29.2643291,273.480542 29.2606956,273.624475 C28.9173299,273.631763 28.5721474,273.646338 28.2305984,273.688243 C27.6328877,273.759298 26.5610053,273.788449 26.3538959,274.500828 C26.3230111,274.606501 27.456663,274.918053 27.572935,274.941738 C28.1161432,275.058342 28.6920529,275.06563 29.2534286,275.074739 C29.2606956,275.419086 29.2770463,275.767077 29.3188316,276.109602 C29.3896848,276.707198 29.4151193,277.782143 30.129102,277.989844 C30.2326567,278.020817 30.543321,276.883926 30.5687554,276.769144 C30.6850274,276.224384 30.6904777,275.646829 30.6995614,275.085671 C31.0647282,275.078383 31.4262614,275.061986 31.7896113,275.034657 C32.3891388,274.989108 33.4028852,274.908943 33.6081779,274.200208 C33.6372459,274.096357 32.5017773,273.784806 32.3891388,273.759298" id="Fill-61" fill="#D5D5FD"></path>
                <path d="M107.664955,192.678593 C107.256186,192.59114 106.832883,192.565632 106.416848,192.560167 C106.271508,192.558345 106.127984,192.554701 105.984461,192.551057 C105.979011,192.184847 105.96266,191.822281 105.937226,191.459714 C105.88999,190.856652 105.810053,189.840009 105.105154,189.63413 C104.999783,189.604979 104.687302,190.743692 104.665501,190.858474 C104.578297,191.268411 104.551046,191.691101 104.545595,192.110147 C104.543779,192.254081 104.540145,192.398014 104.536512,192.543769 C104.193146,192.551057 103.847963,192.565632 103.506414,192.607537 C102.908704,192.678593 101.836821,192.705922 101.629712,193.420122 C101.598827,193.525795 102.732479,193.837347 102.848751,193.861032 C103.391959,193.977636 103.967869,193.984924 104.529245,193.994034 C104.536512,194.338381 104.552862,194.684549 104.594648,195.028896 C104.665501,195.626492 104.690935,196.701437 105.404918,196.909139 C105.508473,196.940112 105.819137,195.803221 105.844571,195.688438 C105.959027,195.143678 105.966294,194.566123 105.975377,194.003143 C106.338727,193.997678 106.702077,193.98128 107.063611,193.953951 C107.664955,193.908403 108.678701,193.826415 108.883994,193.119502 C108.913062,193.015652 107.777593,192.7041 107.664955,192.678593" id="Fill-71" fill="#D5D5FD"></path>
            </g>
            <g id="chico-copy-2" transform="translate(131.595442, 286.583987) rotate(-14.000000) translate(-131.595442, -286.583987) translate(65.000000, 222.000000)" fill-rule="nonzero">
                <polygon id="Path" fill="#FF8B7B" points="14.6509972 102.864678 11.5919977 99.6061224 18.3100873 91.6505495 21.3544504 94.9091052"></polygon>
                <polygon id="Path" fill="#FF8B7B" points="36.1079021 125.777316 33.063539 122.51876 38.2009017 112.904553 41.2452647 116.163108"></polygon>
                <path d="M32.8732663,121.828885 L38.0545381,123.458163 C38.2297526,123.513443 38.3405879,123.686346 38.3179925,123.869152 L37.9813563,127.92033 C37.9356267,128.284077 37.61418,128.548416 37.2495382,128.522135 L37.117811,128.522135 C35.4639022,127.964364 34.278357,127.479984 32.170721,126.819466 C30.8827213,126.408477 28.1749945,125.703925 26.3893585,125.146154 C24.6037225,124.588383 24.9257224,122.738932 25.7160859,122.827002 C27.8846982,123.170934 30.1063168,122.859224 32.0975392,121.931633 C32.3347519,121.802989 32.610884,121.766414 32.8732663,121.828885 L32.8732663,121.828885 Z" id="Path" fill="#263238"></path>
                <path d="M11.8993613,98.9896389 L16.2902696,101.162009 C16.4549699,101.240581 16.5409236,101.425294 16.4951786,101.602355 L15.5438152,105.536107 C15.5024709,105.704326 15.3954654,105.848832 15.2468415,105.937157 C15.0982176,106.025482 14.9204395,106.050219 14.7534517,106.005808 L14.6070881,106.005808 C13.0556338,105.18383 10.830907,103.950863 8.85499828,102.982104 C6.54245327,101.822527 4.46409004,100.985871 1.77099966,99.6061224 C0.131727247,98.7988226 0.512272628,96.9053375 1.25872703,97.0961538 C4.72754454,97.9768446 7.30354403,99.1657771 10.830907,98.8428571 C11.1937417,98.7930174 11.5632582,98.8437807 11.8993613,98.9896389 L11.8993613,98.9896389 Z" id="Path" fill="#263238"></path>
                <path d="M100.595708,31.4700157 C97.1707993,32.1305338 93.7312545,32.7323391 90.3502552,33.3194662 L79.8998936,35.1102041 C78.6045842,35.2800657 77.2881376,35.1750492 76.0358943,34.8019623 C74.9251919,34.4420651 73.8743926,33.9176381 72.9183495,33.2460754 C71.2676266,32.0472342 69.8196902,30.590205 68.6298957,28.9306907 C67.5156456,27.4147993 66.5361343,25.8038111 65.7026236,24.116248 C65.2928055,23.2795918 64.9122601,22.4429356 64.5609874,21.5916013 C64.2097148,20.7402669 63.8877148,19.9182889 63.5803513,18.9935636 L66.653987,17.6725275 C67.4882596,19.1403454 68.4249867,20.6081633 69.3909865,21.8851648 C70.3405116,23.2237263 71.3822353,24.4940424 72.5085314,25.6868132 C73.5031025,26.7846321 74.6578535,27.7249294 75.9334398,28.4756672 C76.4410556,28.7760263 76.9950864,28.9893423 77.5727122,29.1068289 C78.0165445,29.201999 78.475425,29.201999 78.9192574,29.1068289 L81.3342569,28.5050235 L83.8663473,27.88854 C85.6080743,27.4922292 87.3058921,27.1105965 89.0329827,26.7436421 C92.4871638,26.0244113 95.9267086,25.3785714 99.4247988,24.8061224 L100.595708,31.4700157 Z" id="Path" fill="#FF8B7B"></path>
                <path d="M104.196252,30.4572214 C101.195799,33.5102826 89.2818008,34.9927786 89.2818008,34.9927786 L87.8913465,24.8061224 C91.6960348,23.4028252 95.6854747,22.5670505 99.7321624,22.3255102 C105.381798,22.222763 107.460161,27.1252747 104.196252,30.4572214 Z" id="Path" fill="#407BFF"></path>
                <path d="M99.7321624,29.3563579 C96.5121631,29.9434851 91.843164,32.64427 90.4966188,34.8900314 C93.5515122,34.4268773 96.5694339,33.7450464 99.5272534,32.8497645 C100.654253,30.8241758 101.312889,28.9747253 99.7321624,29.3563579 Z" id="Path" fill="#000000" opacity="0.2"></path>
                <path d="M67.7370777,19.7861852 L65.8636236,15.2653061 L61.662988,19.0816327 C62.3050099,20.8338112 64.0040345,21.9677516 65.8636236,21.8851648 L67.7370777,19.7861852 Z" id="Path" fill="#FF8B7B"></path>
                <polygon id="Path" fill="#FF8B7B" points="63.5364422 13.2690738 60.9018972 16.9679749 61.662988 19.0522763 65.9075326 15.2506279"></polygon>
                <polygon id="Path" fill="#000000" opacity="0.2" points="18.3100873 91.6505495 14.8559062 95.7457614 17.9002692 99.0043171 21.3544504 94.9091052"></polygon>
                <polygon id="Path" fill="#000000" opacity="0.2" points="41.2452647 116.163108 38.2009017 112.904553 35.4199931 118.115306 38.9912651 120.405102"></polygon>
                <path d="M101.854435,22.5750392 C101.854435,22.5750392 97.7416174,31.3819466 76.2115306,48.8636578 L92.5310729,66.2866562 C104.737798,58.4044741 113.373251,49.4067504 124.862794,36.0789639 C122.508291,33.7911038 119.967369,31.7044431 117.266523,29.8407378 C114.437384,28.0180733 111.505186,26.3615486 108.484706,24.8795133 C106.338115,23.9386392 104.121222,23.1681168 101.854435,22.5750392 Z" id="Path" fill="#407BFF"></path>
                <path d="M117.368977,39.205416 C115.755187,41.8331935 114.717421,44.7752613 114.324614,47.8361852 C115.563826,46.5445055 116.822553,45.1794349 118.100795,43.7409733 L117.368977,39.205416 Z" id="Path" fill="#000000" opacity="0.2"></path>
                <path d="M121.979431,19.3458399 C119.842522,21.8851648 116.359068,26.8023548 117.281159,29.8260597 C117.281159,29.8260597 114.895432,32.2773155 109.611706,29.3123234 C103.757162,26.0390895 108.440797,24.9088697 108.440797,24.9088697 C112.041342,25.9363422 113.270796,23.5291209 113.958705,21.0044741 L121.979431,19.3458399 Z" id="Path" fill="#FF8B7B"></path>
                <path d="M118.715522,20.0063579 L113.973341,20.9457614 C113.814616,21.5337941 113.609046,22.1080901 113.358614,22.6631083 C114.963236,23.1938868 116.729146,22.7738525 117.925159,21.5769231 C118.282849,21.1067054 118.550804,20.5742415 118.715522,20.0063579 L118.715522,20.0063579 Z" id="Path" fill="#000000" opacity="0.2"></path>
                <path d="M123.852885,1.68799058 C123.835359,1.23296438 123.751531,0.782959052 123.604067,0.352276295 C121.086613,2.80353218 116.359068,0.748587127 114.514887,4.75572998 C112.670705,8.76287284 117.310432,12.3737049 119.12534,13.5626374 C119.616767,13.9291064 120.229899,14.0920243 120.837795,14.0176609 C122.66734,15.5735479 126.092248,13.1076138 126.458157,10.0839089 C126.882612,6.59050235 131.083247,8.61609105 132.488338,4.46216641 C129.385429,4.85847724 127.014339,1.4678179 123.852885,1.68799058 Z" id="Path" fill="#263238"></path>
                <path d="M124.189521,14.2965463 C122.155067,18.2449765 121.189067,20.6521978 118.217886,21.8264521 C116.204001,22.5973504 113.93061,22.1960603 112.30023,20.7818903 C110.66985,19.3677203 109.946255,17.1694648 110.416706,15.0598116 C111.16316,11.0379906 114.353887,5.26946625 119.022886,5.41624804 C122.342148,5.51222715 124.959408,8.28132516 124.87743,11.6104396 C124.865303,12.5480515 124.62942,13.4691131 124.189521,14.2965463 L124.189521,14.2965463 Z" id="Path" fill="#FF8B7B"></path>
                <path d="M120.984158,15.7350078 C120.793886,13.5919937 120.793886,7.70604396 125.140885,6.72260597 C129.487884,5.73916797 129.048793,8.63076923 132.459065,9.14450549 C130.600247,10.6123234 128.551157,11.8599686 127.365612,14.8983516 C126.180066,17.9367347 121.276886,19.4192308 120.984158,15.7350078 Z" id="Path" fill="#263238"></path>
                <path d="M117.090886,3.21452119 C118.876522,2.01091052 124.599339,1.02747253 128.09743,3.81632653 C131.59552,6.60518053 127.219248,6.75196232 128.463339,10.0692308 C126.282521,9.15918367 124.23343,7.98492936 120.969522,8.4399529 C117.705613,8.89497645 114.06116,5.25478807 117.090886,3.21452119 Z" id="Path" fill="#263238"></path>
                <path d="M124.043158,19.5660126 C123.120951,20.1908572 121.989174,20.4231384 120.89634,20.2118524 C119.432704,19.9182889 119.432704,18.4651491 120.354795,17.4523548 C121.276886,16.4395604 123.018612,15.5882261 124.204158,16.3955259 C125.042803,17.0178275 125.231411,18.1983652 124.628612,19.0522763 C124.469335,19.2607366 124.270328,19.435366 124.043158,19.5660126 L124.043158,19.5660126 Z" id="Path" fill="#FF8B7B"></path>
                <path d="M76.2115306,48.8636578 C76.2115306,48.8636578 46.7631727,52.6799843 37.1909928,62.3675824 C27.2382674,72.4368132 14.4607245,93.8229199 14.4607245,93.8229199 L19.6273598,99.3419152 C19.6273598,99.3419152 34.3369024,81.2290424 44.6994459,71.9230769 C55.9694437,61.7951334 78.4362575,68.2975667 86.9546195,60.283281 L76.2115306,48.8636578 Z" id="Path" fill="#263238"></path>
                <path d="M74.8503491,61.839168 C71.3083498,59.4759812 61.6776244,62.4409733 57.4184434,66.433438 C62.9948968,65.4206436 69.0250775,65.3032182 74.3673492,64.6867347 C75.4358035,63.4978022 75.8017125,62.4703297 74.8503491,61.839168 Z" id="Path" fill="#000000" opacity="0.2"></path>
                <path d="M81.9636204,55.0578493 C81.9636204,55.0578493 57.8136251,65.6261381 50.4076266,76.4145997 C42.313719,88.1571429 34.8199023,115.649372 34.8199023,115.649372 L41.0696284,119.920722 C41.0696284,119.920722 49.7197176,97.8153846 58.6332613,87.0562794 C68.2932594,75.3137363 84.3639836,73.9633438 92.5018002,66.3013344 L81.9636204,55.0578493 Z" id="Path" fill="#263238"></path>
                <polygon id="Path" fill="#407BFF" points="33.2684481 115.561303 42.4308099 121.036264 43.894446 118.555651 33.751448 112.273391"></polygon>
                <polygon id="Path" fill="#407BFF" points="13.1727247 92.7073783 20.4762687 100.51617 22.5985411 98.5199372 14.5485426 89.6983516"></polygon>
                <path d="M117.573886,12.711303 C117.427523,13.0489011 117.134795,13.2397174 116.91525,13.1369702 C116.695705,13.0342229 116.651795,12.6966248 116.783523,12.3737049 C116.91525,12.0507849 117.222614,11.8599686 117.442159,11.9480377 C117.661704,12.0361068 117.705613,12.388383 117.573886,12.711303 Z" id="Path" fill="#263238"></path>
                <path d="M113.856251,11.0673469 C113.709887,11.4049451 113.41716,11.5957614 113.197614,11.4930141 C112.978069,11.3902669 112.93416,11.0526688 113.080523,10.7297488 C113.226887,10.4068289 113.504978,10.2160126 113.724523,10.3040816 C113.944069,10.3921507 114.002614,10.744427 113.856251,11.0673469 Z" id="Path" fill="#263238"></path>
                <path d="M114.968614,11.7425432 C114.131987,12.5822453 113.180926,13.2988144 112.143796,13.8708791 C112.460627,14.4015582 112.997529,14.7623101 113.607432,14.8543171 L114.968614,11.7425432 Z" id="Path" fill="#FF5652"></path>
                <path d="M114.910069,16.4542386 C114.649506,16.4003872 114.394657,16.3217479 114.148978,16.2193878 C114.12931,16.2000621 114.118227,16.1736106 114.118227,16.1459969 C114.118227,16.1183831 114.12931,16.0919316 114.148978,16.072606 C114.187068,16.0405469 114.242614,16.0405469 114.280705,16.072606 L114.280705,16.072606 C115.093225,16.4718612 116.044185,16.4718612 116.856705,16.072606 C116.856705,16.072606 116.973795,16.072606 117.003068,16.072606 C117.027597,16.0889229 117.042343,16.1164784 117.042343,16.1459969 C117.042343,16.1755153 117.027597,16.2030708 117.003068,16.2193878 C116.358616,16.5553658 115.612627,16.6390715 114.910069,16.4542386 L114.910069,16.4542386 Z" id="Path" fill="#263238"></path>
                <path d="M119.257068,12.0214286 C119.178048,12.0111366 119.113793,11.9525558 119.096068,11.8746468 C118.994437,11.3414966 118.639107,10.8919534 118.144704,10.6710361 C118.039659,10.6299542 117.982722,10.515754 118.012977,10.4068289 C118.054247,10.2941154 118.17796,10.2353474 118.291068,10.2747253 C118.907115,10.5405541 119.358828,11.0863415 119.505886,11.7425432 C119.533716,11.8519161 119.468367,11.9633263 119.359522,11.9920722 L119.359522,11.9920722 C119.335868,12.0238915 119.293914,12.0359127 119.257068,12.0214286 Z" id="Path" fill="#263238"></path>
                <path d="M112.831705,9.08579278 C112.793506,9.09721421 112.752814,9.09721421 112.714614,9.08579278 C112.675279,9.04714153 112.653112,8.99423856 112.653112,8.93901099 C112.653112,8.88378342 112.675279,8.83088045 112.714614,8.7922292 C113.220604,8.34059226 113.912211,8.16036992 114.573432,8.30784929 C114.686407,8.34930986 114.749679,8.46987073 114.719796,8.58673469 C114.678831,8.69207963 114.564956,8.74917976 114.456341,8.7188383 C113.933328,8.60820707 113.389122,8.75556248 112.992705,9.11514914 C112.937494,9.13256482 112.877271,9.1215839 112.831705,9.08579278 L112.831705,9.08579278 Z" id="Path" fill="#263238"></path>
                <path d="M124.511521,39.0292779 C124.672521,39.939325 124.789612,40.7319466 124.87743,41.5686028 C124.965248,42.405259 125.067703,43.2419152 125.140885,44.0638932 C125.287248,45.7372057 125.36043,47.4105181 125.375067,49.0985086 C125.389703,50.7864992 125.375067,52.4744898 125.170157,54.1918367 L125.03843,55.4688383 L124.862794,56.7605181 C124.862794,57.1861852 124.71643,57.6412088 124.628612,58.066876 L124.496885,58.7127159 L124.496885,58.8741758 L124.496885,59.1530612 C124.45172,59.3429589 124.393023,59.5293613 124.321249,59.710832 C123.909024,60.796758 123.292924,61.793308 122.50634,62.6464678 C121.858279,63.3389409 121.163881,63.9862828 120.427977,64.5839874 C119.122379,65.6938447 117.743413,66.7138603 116.300523,67.6370487 C113.500539,69.4269143 110.564164,70.9925475 107.518706,72.3193878 L105.864798,69.383752 C108.367615,67.5049451 110.870433,65.5527473 113.182978,63.5124804 C114.33925,62.5290424 115.422341,61.5015699 116.476159,60.4300628 C116.941034,59.9420893 117.371411,59.4221993 117.764159,58.8741758 C118.038297,58.5318528 118.251232,58.1444937 118.393522,57.7292779 L118.393522,57.7292779 L118.393522,57.5824961 L118.393522,57.0540816 C118.393522,56.7018053 118.481341,56.3348509 118.495977,55.9678964 L118.495977,54.867033 L118.495977,53.7514914 C118.495977,52.2836735 118.495977,50.8158556 118.495977,49.2159341 C118.495977,47.6160126 118.305704,46.1628728 118.159341,44.6216641 C118.159341,43.8583987 118.027613,43.1538462 117.925159,42.3318681 L117.647068,40.1007849 L124.511521,39.0292779 Z" id="Path" fill="#FF8B7B"></path>
                <path d="M124.409067,35.6679749 C127.863248,38.1926217 127.087521,51.0653846 127.087521,51.0653846 L116.959159,52.1956044 C116.196217,48.4598605 115.891473,44.6445984 116.051705,40.8346939 C116.505432,35.0368132 120.57434,32.8204082 124.409067,35.6679749 Z" id="Path" fill="#407BFF"></path>
                <path d="M31.2339939,122.151805 C30.933006,122.090138 30.6634354,121.923774 30.4729032,121.682104 C30.3790711,121.497706 30.3790711,121.279374 30.4729032,121.094976 C30.5095688,120.973156 30.6114231,120.88236 30.7363577,120.860126 C31.277903,120.772057 32.3902664,122.049058 32.5073573,122.19584 C32.5293431,122.22654 32.5293431,122.267887 32.5073573,122.298587 C32.4903429,122.34095 32.4503797,122.369577 32.4049028,122.371978 C32.0071632,122.346299 31.6139933,122.272369 31.2339939,122.151805 L31.2339939,122.151805 Z M30.8680849,121.080298 L30.7363577,121.080298 C30.7363577,121.080298 30.6631759,121.080298 30.6339031,121.183046 C30.5688421,121.307093 30.5688421,121.455309 30.6339031,121.579356 C31.0346139,121.94303 31.557123,122.14215 32.0975392,122.137127 C31.7422762,121.712463 31.3102548,121.358887 30.8241758,121.094976 L30.8680849,121.080298 Z" id="Shape" fill="#407BFF"></path>
                <path d="M32.3756301,122.3573 C32.3756301,122.3573 32.3756301,122.3573 32.3756301,122.3573 C32.009721,121.975667 31.438903,120.772057 31.6877211,120.331711 C31.7654282,120.183339 31.9399075,120.114598 32.0975392,120.170251 C32.2558976,120.200482 32.3941271,120.296453 32.4780846,120.434458 C32.6895429,121.039246 32.7150378,121.693778 32.5512664,122.313265 L32.4780846,122.386656 L32.3756301,122.3573 Z M32.0536301,120.361068 L32.0536301,120.361068 C31.9219029,120.361068 31.8926302,120.361068 31.8779938,120.361068 C31.7316302,120.625275 32.0536301,121.491287 32.3902664,121.960989 C32.5051108,121.473662 32.4745721,120.96323 32.3024483,120.493171 C32.2602575,120.409438 32.1865046,120.34604 32.0975392,120.317033 L32.0536301,120.361068 Z" id="Shape" fill="#407BFF"></path>
                <path d="M9.89417989,98.8575353 C9.53529383,98.7183785 9.23539502,98.4591064 9.04527097,98.1236264 C8.95676531,97.953475 8.95676531,97.7506852 9.04527097,97.5805338 C9.09882066,97.4751897 9.20549986,97.4076209 9.32336182,97.4043956 C9.92345262,97.4043956 11.1529069,98.9896389 11.2553614,99.1804553 C11.2851779,99.2138864 11.2851779,99.2644496 11.2553614,99.2978807 C11.2201759,99.3224507 11.1734561,99.3224507 11.1382706,99.2978807 C10.7099791,99.1930372 10.2932103,99.045522 9.89417989,98.8575353 L9.89417989,98.8575353 Z M9.58681632,97.6979592 C9.52017278,97.6766054 9.44855081,97.6766054 9.38190727,97.6979592 C9.349568,97.6821801 9.31179201,97.6821801 9.27945274,97.6979592 C9.21958409,97.8129097 9.21958409,97.9499631 9.27945274,98.0649137 C9.42581635,98.4025118 10.0551799,98.7694662 11.0065433,99.0483516 C10.6051507,98.5000267 10.1095222,98.0278344 9.54290724,97.6539246 L9.58681632,97.6979592 Z" id="Shape" fill="#407BFF"></path>
                <path d="M11.196816,99.327237 L11.196816,99.327237 C10.830907,98.8722135 10.303998,97.5364992 10.5967252,97.110832 C10.7226724,96.9702051 10.9280249,96.9338629 11.0943615,97.022763 C11.2891108,97.1038975 11.4459956,97.2559861 11.5334523,97.4484301 C11.6742576,98.0654289 11.6231773,98.7108796 11.3870887,99.2978807 C11.3798729,99.3407178 11.3425865,99.3718785 11.2992705,99.3712803 L11.196816,99.327237 Z M11.0065433,97.2282575 L11.0065433,97.2282575 C10.830907,97.2282575 10.7869979,97.2282575 10.7723615,97.2282575 C10.5967252,97.4777865 10.8894524,98.4759027 11.2553614,99.0189953 C11.4021004,98.5407878 11.4021004,98.0293849 11.2553614,97.5511774 C11.2149497,97.4238664 11.1253228,97.3181218 11.0065433,97.2576138 L11.0065433,97.2282575 Z" id="Shape" fill="#407BFF"></path>
                <path d="M107.064979,69.1342229 L102.527707,69.1342229 L104.898798,74.3302983 C104.898798,74.3302983 108.748161,73.4789639 108.528615,71.3946625 L107.064979,69.1342229 Z" id="Path" fill="#FF8B7B"></path>
                <polygon id="Path" fill="#FF8B7B" points="98.5319808 71.8203297 100.698162 75.9889325 104.898798 74.3156201 102.542344 69.1195447"></polygon>
            </g>
            <g id="planeta-copy-2" transform="translate(102.564103, 94.285714)" fill-rule="nonzero">
                <ellipse id="Oval" fill="#407BFF" cx="34.9524599" cy="24.3016484" rx="24.1972934" ry="24.3016484"></ellipse>
                <ellipse id="Oval" fill="#FFFFFF" opacity="0.3" cx="34.9524599" cy="24.3016484" rx="24.1972934" ry="24.3016484"></ellipse>
                <path d="M50.2409215,5.48461538 C39.2058638,2.1903583 27.3882082,7.16480706 21.9895644,17.3765619 C16.5909207,27.5883167 19.1078669,40.2065389 28.006591,47.5417582 C39.0602957,50.8606849 50.9096881,45.8804513 56.3149341,35.6439194 C61.7201801,25.4073875 59.1777014,12.7620551 50.2409215,5.43406593 L50.2409215,5.48461538 Z" id="Path" fill="#407BFF" opacity="0.4"></path>
                <path d="M11.8624789,31.5934066 C-13.970617,43.8010989 5.29410284,53.2159341 41.6969993,40.0730769 C75.4071133,27.9032967 88.2544542,12.5615385 58.055024,17.3258242 C59.6782434,23.7076923 17.4619566,40.2247253 11.8624789,31.5934066 Z" id="Path" fill="#407BFF"></path>
            </g>
            <g id="luna-copy-2" transform="translate(61.965812, 214.285714)" fill-rule="nonzero">
                <ellipse id="Oval" fill="#407BFF" cx="17.1698861" cy="17.1977273" rx="17.1487309" ry="17.1977273"></ellipse>
                <ellipse id="Oval" fill="#FFFFFF" opacity="0.7" cx="17.1698861" cy="17.1977273" rx="17.1487309" ry="17.1977273"></ellipse>
                <path d="M11.2685652,4.23155374 C8.9343819,4.21875246 6.62273147,4.68998657 4.47887345,5.61590909 C-0.966662527,11.6032151 -1.50544959,20.5905456 3.18557409,27.1890119 C7.87659778,33.7874783 16.5244157,36.2064358 23.9437142,32.9954545 L23.9437142,32.9954545 C28.4932386,27.9536029 29.6568523,20.6983958 26.9132578,14.4801565 C24.1696633,8.26191725 18.0330849,4.24611276 11.2527015,4.23155374 L11.2685652,4.23155374 Z" id="Path" fill="#407BFF" opacity="0.2"></path>
                <path d="M9.55527852,8.76590909 C9.55527852,9.64454392 8.84503353,10.3568182 7.96890194,10.3568182 C7.09277034,10.3568182 6.38252535,9.64454392 6.38252535,8.76590909 C6.38252535,7.88727426 7.09277034,7.175 7.96890194,7.175 C8.84503353,7.175 9.55527852,7.88727426 9.55527852,8.76590909 Z" id="Path" fill="#407BFF" opacity="0.2"></path>
                <path d="M27.9731107,7.20681818 C27.9731107,8.08545301 27.2628657,8.79772727 26.3867341,8.79772727 C25.5106025,8.79772727 24.8003575,8.08545301 24.8003575,7.20681818 C24.8003575,6.32818335 25.5106025,5.61590909 26.3867341,5.61590909 C27.2628657,5.61590909 27.9731107,6.32818335 27.9731107,7.20681818 Z" id="Path" fill="#407BFF" opacity="0.2"></path>
                <path d="M24.8003575,18.4068182 C24.8003575,19.8302066 23.6497606,20.9840909 22.2304274,20.9840909 C20.8110943,20.9840909 19.6604974,19.8302066 19.6604974,18.4068182 C19.6604974,16.9834298 20.8110943,15.8295455 22.2304274,15.8295455 L22.2304274,15.8295455 C23.6497606,15.8295455 24.8003575,16.9834298 24.8003575,18.4068182 Z" id="Path" fill="#407BFF" opacity="0.2"></path>
                <path d="M16.709874,25.7090909 C16.709874,27.0989703 15.8749791,28.3519931 14.5945564,28.8838769 C13.3141336,29.4157607 11.8403033,29.1217601 10.8603102,28.1389669 C9.88031706,27.1561738 9.58715399,25.6781326 10.1175224,24.3940515 C10.6478909,23.1099704 11.8973439,22.27269 13.2832635,22.27269 C14.1933413,22.2684723 15.0673711,22.6291502 15.7109003,23.274518 C16.3544295,23.9198859 16.7140798,24.7964128 16.709874,25.7090909 L16.709874,25.7090909 Z" id="Path" fill="#407BFF" opacity="0.2"></path>
            </g>
            <g id="Group-8-Copy-2" transform="translate(61.965812, 143.571429)" fill-rule="nonzero">
                <ellipse id="Oval" fill="#407BFF" cx="3.92999371" cy="3.94122227" rx="3.92999371" ry="3.94122227"></ellipse>
                <path d="M1.8514637,3.26683534 C2.41551666,1.51748067 4.11293521,0.393547101 5.93865716,0.560529389 C5.68635016,0.406353821 5.41662815,0.282868048 5.13519178,0.192681977 C3.10035752,-0.383629459 0.975563944,0.757939118 0.326704176,2.7760945 C-0.322155592,4.79424989 0.737522579,6.96552102 2.72479564,7.68976255 C3.00805104,7.78228859 3.30117551,7.84108098 3.59812758,7.86492799 C2.01621734,6.92970322 1.29098867,5.02053873 1.8514637,3.26683534 L1.8514637,3.26683534 Z" id="Path" fill="#FFFFFF" opacity="0.2"></path>
            </g>
        </g>
    </g>
</svg>